<?xml version="1.0" encoding="UTF-8" standalone="no"?>
<!-- Created with Inkscape (http://www.inkscape.org/) -->

<svg
   xmlns:dc="http://purl.org/dc/elements/1.1/"
   xmlns:cc="http://creativecommons.org/ns#"
   xmlns:rdf="http://www.w3.org/1999/02/22-rdf-syntax-ns#"
   xmlns:svg="http://www.w3.org/2000/svg"
   xmlns="http://www.w3.org/2000/svg"
   xmlns:sodipodi="http://sodipodi.sourceforge.net/DTD/sodipodi-0.dtd"
   xmlns:inkscape="http://www.inkscape.org/namespaces/inkscape"
   version="1.1"
   id="svg2"
   xml:space="preserve"
   width="4096"
   height="4096"
   viewBox="0 0 4096 4096"
   sodipodi:docname="burnley-logo.svg"
   inkscape:export-filename="G:\Users\suitedoalex\sites\burnley-logo-0.png"
   inkscape:export-xdpi="96"
   inkscape:export-ydpi="96"
   inkscape:version="0.92.2 (5c3e80d, 2017-08-06)"><metadata
     id="metadata8"><rdf:RDF><cc:Work
         rdf:about=""><dc:format>image/svg+xml</dc:format><dc:type
           rdf:resource="http://purl.org/dc/dcmitype/StillImage" /><dc:title></dc:title></cc:Work></rdf:RDF></metadata><defs
     id="defs6"><clipPath
       clipPathUnits="userSpaceOnUse"
       id="clipPath24"><path
         d="M 0,595.276 H 419.528 V 0 H 0 Z"
         id="path22"
         inkscape:connector-curvature="0" /></clipPath><linearGradient
       x1="0"
       y1="0"
       x2="1"
       y2="0"
       gradientUnits="userSpaceOnUse"
       gradientTransform="matrix(32.122593,-58.86354,-58.86354,-32.122593,332.56324,579.54382)"
       spreadMethod="pad"
       id="linearGradient218"><stop
         style="stop-opacity:1;stop-color:#241d10"
         offset="0"
         id="stop214" /><stop
         style="stop-opacity:1;stop-color:#fff30d"
         offset="1"
         id="stop216" /></linearGradient><clipPath
       clipPathUnits="userSpaceOnUse"
       id="clipPath228"><path
         d="m 317.62,503.386 h 64.21 v 70.631 h -64.21 z"
         id="path226"
         inkscape:connector-curvature="0" /></clipPath><linearGradient
       x1="0"
       y1="0"
       x2="1"
       y2="0"
       gradientUnits="userSpaceOnUse"
       gradientTransform="matrix(-26.572665,36.663502,36.663502,26.572665,371.65688,505.18318)"
       spreadMethod="pad"
       id="linearGradient588"><stop
         style="stop-opacity:1;stop-color:#241d10"
         offset="0"
         id="stop584" /><stop
         style="stop-opacity:1;stop-color:#fff30d"
         offset="1"
         id="stop586" /></linearGradient><linearGradient
       x1="0"
       y1="0"
       x2="1"
       y2="0"
       gradientUnits="userSpaceOnUse"
       gradientTransform="matrix(-26.572665,36.663502,36.663502,26.572665,380.97661,511.93842)"
       spreadMethod="pad"
       id="linearGradient608"><stop
         style="stop-opacity:1;stop-color:#241d10"
         offset="0"
         id="stop604" /><stop
         style="stop-opacity:1;stop-color:#fff30d"
         offset="1"
         id="stop606" /></linearGradient><clipPath
       clipPathUnits="userSpaceOnUse"
       id="clipPath618"><path
         d="m 38.197,77.6 h 85.11 v 125.788 h -85.11 z"
         id="path616"
         inkscape:connector-curvature="0" /></clipPath><clipPath
       clipPathUnits="userSpaceOnUse"
       id="clipPath630"><path
         d="m 146.457,77.6 h 95.055 v 125.788 h -95.055 z"
         id="path628"
         inkscape:connector-curvature="0" /></clipPath><clipPath
       clipPathUnits="userSpaceOnUse"
       id="clipPath642"><path
         d="m 258.801,77.6 h 86.457 v 125.788 h -86.457 z"
         id="path640"
         inkscape:connector-curvature="0" /></clipPath></defs><sodipodi:namedview
     pagecolor="#ffffff"
     bordercolor="#666666"
     borderopacity="1"
     objecttolerance="10"
     gridtolerance="10"
     guidetolerance="10"
     inkscape:pageopacity="0"
     inkscape:pageshadow="2"
     inkscape:window-width="1920"
     inkscape:window-height="1017"
     id="namedview4"
     showgrid="false"
     inkscape:zoom="0.14867053"
     inkscape:cx="1154.5083"
     inkscape:cy="1704.6499"
     inkscape:window-x="-8"
     inkscape:window-y="-8"
     inkscape:window-maximized="1"
     inkscape:current-layer="g10" /><g
     id="g10"
     inkscape:groupmode="layer"
     inkscape:label="2019-20-PL-Handbook-220819"
     transform="matrix(1.3333333,0,0,-1.3333333,0,4096)"><g
       id="g202"
       transform="matrix(35.442314,0,0,35.442314,-10867.268,-17487.573)"
       inkscape:export-filename="G:\Users\suitedoalex\sites\burnley-logo-4.png"
       inkscape:export-xdpi="15.754242"
       inkscape:export-ydpi="15.754242"><g
         id="g204"><g
           id="g210"><g
             id="g212"><path
               d="m 325.318,565.339 v -29.232 c 0,-6.404 2.591,-12.545 7.491,-17.759 v 0 c 4.437,-4.722 10.429,-8.291 16.873,-10.05 v 0 l 0.485,-0.109 0.539,0.053 0.026,0.003 c 1.9,0.27 4.358,1.332 5.068,1.652 v 0 c 2.623,1.18 5.1,2.677 7.362,4.448 v 0 c 6.552,5.13 10.5,12.039 11.418,19.981 v 0 l 0.014,31.013 z"
               style="fill:url(#linearGradient218);stroke:none"
               id="path220"
               inkscape:connector-curvature="0" /></g></g></g></g><g
       id="g222"
       transform="matrix(35.442314,0,0,35.442314,-10867.268,-17487.573)"
       inkscape:export-filename="G:\Users\suitedoalex\sites\burnley-logo-4.png"
       inkscape:export-xdpi="15.754242"
       inkscape:export-ydpi="15.754242"><g
         id="g224"
         clip-path="url(#clipPath228)"><g
           id="g230"
           transform="translate(327.3985,563.286)"><path
             d="M 0,0 H 45.114 V -28.727 C 43.074,-46.385 25.739,-52.59 22.807,-53.01 10.691,-49.701 0,-39.514 0,-27.178 Z"
             style="fill:#97d9f6;fill-opacity:1;fill-rule:evenodd;stroke:none"
             id="path232"
             inkscape:connector-curvature="0" /></g><g
           id="g234"
           transform="translate(338.5409,543.3112)"><path
             d="m 0,0 v -10.192 c 0,0 0.838,-3.822 1.513,-4.5 0.677,-0.677 3.514,-3.957 4.596,-4.445 1.081,-0.488 5.64,-2.479 5.64,-2.479 l 5.984,2.804 3.19,2.928 1.783,2.656 0.487,1.952 0.054,3.849 0.108,7.752 -23.36,0.022 z"
             style="fill:#fff30d;fill-opacity:1;fill-rule:evenodd;stroke:none"
             id="path236"
             inkscape:connector-curvature="0" /></g><g
           id="g238"
           transform="translate(338.7728,532.1965)"><path
             d="m 0,0 h 1.06 v 1.476 h 1.148 v 1.387 h 1.619 v 1.624 h 1.59 v 1.446 h 1.62 v 1.506 h 1.884 v 1.594 h 1.766 l 0.83,1.286 0.982,-1.286 h 1.643 L 14.161,7.35 h 1.59 V 6.052 h 1.501 V 4.546 h 1.383 V 2.863 h 1.532 V 1.417 h 1.619 v -1.742 h 0.942 c 0,0 -0.089,-0.827 -0.295,-1.328 -0.205,-0.502 -0.588,-0.768 -0.588,-0.768 h -1.413 v 1.83 h -1.973 v 1.653 h -1.56 v 1.535 h -1.59 v 1.565 h -1.53 V 5.757 H 12.336 V 7.321 H 11.953 10.54 V 5.816 H 8.921 V 4.192 H 7.242 V 2.627 H 5.653 V 1.003 H 3.945 V -0.62 H 2.443 V -2.214 H 1.031 c 0,0 -0.589,0.738 -0.767,1.24 C 0.088,-0.472 0,0 0,0"
             style="fill:#630530;fill-opacity:1;fill-rule:evenodd;stroke:none"
             id="path240"
             inkscape:connector-curvature="0" /></g><path
           d="m 361.775,543.092 h -23.169 v 6.97 h 23.169 z"
           style="fill:#06121e;fill-opacity:1;fill-rule:evenodd;stroke:none"
           id="path242"
           inkscape:connector-curvature="0" /><g
           id="g244"
           transform="translate(352.2828,535.185)"><path
             d="M 0,0 C -0.181,-0.501 0.472,-0.738 0.2,-1.194 0.1,-1.377 0.01,-1.587 0,-1.787 -0.128,-1.96 -0.1,-2.206 -0.082,-2.444 c 0.027,-0.027 0.009,-0.072 0.018,-0.109 -0.1,-0.064 -0.245,0.128 -0.3,-0.073 0.055,-0.118 0.037,-0.273 0.1,-0.391 l -0.227,-0.047 c 0,-0.164 0.082,-0.282 -0.017,-0.428 -0.311,0 -0.292,0.328 -0.492,0.475 -0.118,-0.01 -0.163,-0.174 -0.264,-0.211 -0.055,-0.072 -0.155,-0.127 -0.254,-0.136 -0.028,0.155 0.054,0.347 -0.137,0.41 -0.155,-0.063 -0.282,-0.191 -0.454,-0.21 -0.019,-0.045 -0.064,-0.036 -0.1,-0.036 -0.036,0.164 0.145,0.292 0.1,0.465 -0.055,0.045 -0.091,0.1 -0.164,0.082 -0.073,-0.037 -0.163,-0.073 -0.228,-0.064 -0.036,-0.091 -0.118,-0.036 -0.181,-0.055 -0.018,0.265 0.218,0.429 0.372,0.629 0.255,0.11 0.5,0.219 0.801,0.247 0.181,0.064 0.381,0.164 0.409,0.373 0.009,0.055 -0.01,0.11 -0.046,0.146 -0.1,-0.027 -0.136,-0.127 -0.164,-0.21 -0.109,-0.109 -0.254,-0.218 -0.39,-0.145 -0.064,0.027 -0.137,0.064 -0.2,0.091 v 0.019 c 0.108,0.018 0.264,0.026 0.327,0.164 0.081,0.164 -0.018,0.282 -0.027,0.446 0,0.064 -0.009,0.119 -0.073,0.164 -0.255,0.009 -0.436,-0.173 -0.682,-0.036 -0.063,0.1 -0.018,0.2 -0.036,0.328 0.154,0.073 0.291,0.2 0.473,0.2 0.172,-0.045 0.291,-0.292 0.482,-0.2 0.126,0.073 0.227,0.173 0.391,0.2 -0.01,0.101 -0.138,0.156 -0.201,0.192 -0.154,-0.036 -0.272,-0.119 -0.427,-0.064 0,0.1 0.109,0.128 0.164,0.183 0.209,-0.028 0.363,-0.083 0.573,-0.036 0.126,0.027 0.255,0.044 0.4,0.072 0.063,0.046 0.164,0.027 0.227,0.082 C -0.2,0.073 -0.091,0.064 0,0"
             style="fill:#06121e;fill-opacity:1;fill-rule:evenodd;stroke:none"
             id="path246"
             inkscape:connector-curvature="0" /></g><g
           id="g248"
           transform="translate(353.289,528.9305)"><path
             d="m 0,0 c 0.147,-0.323 0.251,-0.686 0.103,-1.048 -0.073,-0.274 -0.218,-0.529 -0.49,-0.667 -0.174,-0.2 -0.619,0.01 -0.683,-0.318 -0.081,-0.191 -0.118,-0.42 -0.1,-0.657 0.028,-0.164 0.21,-0.173 0.328,-0.228 0.072,0 0.163,-0.027 0.199,-0.109 -0.017,-0.219 0.091,-0.42 0.028,-0.611 -0.164,-0.1 -0.246,0.2 -0.391,0 -0.045,-0.264 0.073,-0.492 0.145,-0.72 -0.135,-0.073 -0.236,0.073 -0.345,-0.064 -0.036,-0.265 0.072,-0.446 0.1,-0.693 -0.173,-0.082 -0.337,0.192 -0.427,-0.064 0.019,-0.118 -0.027,-0.264 0.036,-0.364 0.036,-0.128 -0.082,-0.146 -0.182,-0.128 -0.1,0.063 -0.209,0.018 -0.309,0.027 -0.119,-0.036 -0.155,-0.182 -0.282,-0.191 -0.055,-0.11 -0.209,-0.073 -0.291,-0.146 l -0.363,0.028 c -0.037,0.218 0.199,0.264 0.3,0.392 -0.046,0.09 -0.155,0.036 -0.227,0.054 -0.137,-0.054 -0.256,-0.246 -0.41,-0.146 -0.091,0.028 -0.154,0.101 -0.1,0.192 0.128,0.246 0.391,0.227 0.618,0.246 -0.045,0.127 -0.2,0.055 -0.273,0.146 -0.164,-0.046 -0.308,-0.101 -0.481,-0.082 -0.028,0.009 -0.073,0.045 -0.064,0.082 0.054,0.191 0.245,0.218 0.391,0.319 0.427,0.082 0.646,-0.274 1.036,-0.164 l 0.309,0.273 c 0.055,0.584 0.237,1.304 -0.282,1.696 -0.318,0.292 -0.927,0.52 -0.927,1.067 -0.017,0.41 0.41,0.784 0.164,1.213 -0.009,0.118 -0.1,0.2 -0.136,0.31 -0.037,0.09 -0.128,0.173 -0.209,0.227 -0.083,-0.045 -0.046,-0.164 -0.037,-0.227 v 0.017 C -3.39,-0.219 -3.534,-0.114 -3.666,0 h 1.684 c 0.134,-0.248 0.339,-0.471 0.521,-0.684 0.201,-0.219 0.246,-0.574 0.501,-0.738 0.118,0.045 0.336,-0.027 0.426,0.064 0.147,0.027 0.292,0.109 0.383,0.246 0.173,0.255 0.081,0.665 -0.054,0.921 -0.174,0.237 -0.465,0.063 -0.674,0.164 C -0.918,-0.02 -0.956,-0.011 -0.994,0 Z"
             style="fill:#06121e;fill-opacity:1;fill-rule:evenodd;stroke:none"
             id="path250"
             inkscape:connector-curvature="0" /></g><g
           id="g252"
           transform="translate(349.6233,528.9305)"><path
             d="m 0,0 c -0.172,0.149 -0.322,0.315 -0.404,0.547 0,0.064 0.073,0.1 0.1,0.127 0.108,-0.008 0.163,0.092 0.264,0.101 0.1,0.182 0.163,0.383 0.181,0.592 C 0.105,1.395 0.078,1.459 0.023,1.45 -0.049,1.285 -0.04,1.03 -0.204,0.894 -0.331,0.866 -0.477,0.747 -0.614,0.757 -0.832,0.711 -0.759,0.147 -1.086,0.419 -1.186,0.383 -1.331,0.565 -1.331,0.365 -1.35,0.273 -1.277,0.128 -1.396,0.091 -1.613,0.073 -1.632,0.438 -1.859,0.383 -1.987,0.301 -1.923,-0.009 -2.132,0.101 -2.223,0.174 -2.295,0.31 -2.45,0.301 -2.65,0.219 -2.796,0.11 -3.005,0.201 c 0.045,0.137 0.045,0.237 0.146,0.346 0.018,0.082 -0.073,0.1 -0.128,0.064 -0.081,-0.082 -0.209,-0.173 -0.327,-0.164 -0.064,0.182 0.164,0.319 0.182,0.51 -0.028,0.064 -0.1,0.055 -0.146,0.037 -0.118,-0.082 -0.118,-0.328 -0.327,-0.247 -0.046,0.056 0.009,0.147 0.009,0.229 0.127,0.09 0.2,0.282 0.383,0.274 0.036,0.081 0.145,0.017 0.191,0.081 0.072,-0.064 0.19,-0.009 0.262,-0.046 0.255,-0.127 0.592,-0.318 0.855,-0.145 0.164,0.027 0.282,0.2 0.409,0.292 0.264,0.237 0.591,0.482 0.882,0.711 0.045,0.1 -0.072,0.064 -0.118,0.091 -0.381,-0.137 -0.755,0.036 -1.091,0.164 0.009,0.2 0.227,0.146 0.273,0.328 -0.037,0.201 -0.273,0.155 -0.409,0.237 0.036,0.164 0.346,0.31 0.136,0.474 -0.1,0.009 -0.209,0.037 -0.281,0.1 v 0.047 c 0.063,0.036 0.136,0.118 0.181,0.181 0.146,0.174 0.137,0.42 0.127,0.657 -0.208,0.283 -0.736,0.419 -0.736,0.82 0.182,0.101 0.391,-0.072 0.564,-0.081 0.009,0.237 -0.5,0.237 -0.236,0.455 0.163,0.028 0.299,0.092 0.463,0.018 l 0.046,0.046 c -0.064,0.164 -0.364,0.091 -0.273,0.301 0.263,0.219 0.618,0.091 0.864,-0.1 0.045,-0.1 0.163,-0.237 0.099,-0.365 C -0.914,5.38 -1.041,5.188 -1.023,5.042 -1.268,4.586 -1.059,4.067 -0.841,3.666 -0.704,3.41 -1.005,3.209 -1.041,2.963 -1.059,2.863 -1.15,2.763 -1.086,2.68 l 0.099,-0.063 c 0.128,0.018 0.273,0.018 0.418,0 l 0.037,0.027 c 0.064,-0.082 -0.064,-0.246 0.1,-0.273 0.137,0.018 0.274,0.027 0.392,0.1 C 0.005,2.444 0.086,2.425 0.086,2.352 0.086,2.207 0.15,2.06 0.223,1.924 0.242,1.869 0.322,1.887 0.35,1.906 0.468,1.97 0.578,2.261 0.741,2.152 0.896,2.006 1.014,1.705 1.269,1.677 1.341,1.796 1.332,1.96 1.396,2.06 1.505,2.07 1.55,1.97 1.641,1.96 1.724,1.732 1.569,1.523 1.55,1.304 1.588,1.085 1.45,0.866 1.55,0.647 1.519,0.41 1.579,0.197 1.684,0 Z"
             style="fill:#06121e;fill-opacity:1;fill-rule:evenodd;stroke:none"
             id="path254"
             inkscape:connector-curvature="0" /></g><g
           id="g256"
           transform="translate(352.2952,528.9305)"><path
             d="m 0,0 c -0.147,0.044 -0.282,0.119 -0.376,0.264 0.091,0.009 0.155,-0.008 0.245,-0.045 0.082,0.064 0.182,-0.072 0.282,0 0.046,0.018 0.101,0.018 0.127,0.064 -0.227,0.264 -0.7,0.356 -0.745,0.775 0.164,-0.164 0.4,-0.228 0.636,-0.201 0.055,0.064 -0.028,0.11 -0.036,0.164 -0.145,0.1 -0.245,0.283 -0.345,0.411 -0.046,0.1 -0.082,0.227 -0.082,0.327 0.09,-0.072 0.209,-0.182 0.327,-0.145 0.1,0.2 0.028,0.41 0.118,0.61 C 0.061,2.507 0.333,2.717 0.315,3.009 0.506,3.282 0.551,3.611 0.77,3.865 1.024,4.149 1.325,4.386 1.688,4.358 1.743,4.322 1.797,4.413 1.852,4.368 2.161,4.239 2.188,3.93 2.242,3.666 2.297,3.501 2.279,3.346 2.261,3.172 2.197,2.644 1.951,2.197 1.787,1.714 1.724,1.577 1.697,1.44 1.643,1.304 1.506,1.349 1.561,1.568 1.525,1.732 1.47,1.814 1.352,1.778 1.279,1.759 1.243,2.133 1.506,2.389 1.688,2.68 1.706,2.708 1.67,2.771 1.624,2.781 1.47,2.771 1.397,2.744 1.279,2.644 L 1.233,2.68 C 1.361,3.027 1.743,3.127 1.915,3.419 1.934,3.537 2.016,3.693 1.934,3.811 1.906,3.994 1.706,4.039 1.578,4.112 1.024,4.012 0.66,3.474 0.497,2.973 0.451,2.699 0.306,2.471 0.315,2.17 0.252,1.824 0.351,1.404 0.416,1.076 0.569,0.784 0.688,0.484 0.887,0.219 0.923,0.148 0.961,0.075 0.994,0 Z"
             style="fill:#06121e;fill-opacity:1;fill-rule:evenodd;stroke:none"
             id="path258"
             inkscape:connector-curvature="0" /></g><g
           id="g260"
           transform="translate(349.3555,532.5502)"><path
             d="m 0,0 c -0.009,-0.128 -0.127,-0.228 -0.082,-0.346 0.118,-0.201 0.264,0.036 0.427,-0.019 0.037,0.046 0.137,0.055 0.164,0.019 -0.063,-0.119 -0.155,-0.237 -0.155,-0.365 0.255,-0.137 0.491,-0.028 0.755,0.054 0.054,-0.099 -0.119,-0.264 0.082,-0.327 0.236,0.036 0.454,0.1 0.636,0.255 0.173,0.055 0.264,-0.211 0.41,-0.255 0,-0.046 0.072,-0.101 0,-0.137 -0.091,0.018 -0.255,0.046 -0.274,-0.101 0.028,-0.054 0.01,-0.137 0.019,-0.21 -0.146,0.037 -0.255,0.201 -0.428,0.201 -0.154,-0.1 -0.063,-0.373 -0.245,-0.383 -0.182,0.119 -0.1,0.411 -0.345,0.428 -0.137,-0.072 -0.246,-0.236 -0.391,-0.282 -0.101,0.164 0,0.401 -0.146,0.547 -0.145,0 -0.245,-0.146 -0.4,-0.063 -0.046,0.136 0.118,0.31 -0.082,0.373 -0.163,-0.054 -0.309,-0.145 -0.491,-0.164 l -0.027,0.082 c 0.118,0.282 0.227,0.528 0.509,0.702 z"
             style="fill:#06121e;fill-opacity:1;fill-rule:evenodd;stroke:none"
             id="path262"
             inkscape:connector-curvature="0" /></g><g
           id="g264"
           transform="translate(349.4553,528.3292)"><path
             d="M 0,0 C 0.136,-0.064 0.318,-0.046 0.49,-0.046 0.654,-0.219 0.41,-0.611 0.8,-0.575 0.672,-0.848 0.618,-1.167 0.555,-1.44 c -0.327,-0.047 -0.709,0.309 -0.956,-0.056 -0.027,-0.118 0.037,-0.173 0.056,-0.273 0.127,-0.173 0.154,-0.411 0.191,-0.629 0.008,-0.037 0,-0.11 -0.064,-0.082 -0.137,0.054 -0.255,0.182 -0.409,0.118 -0.11,-0.209 0.145,-0.428 0.036,-0.657 -0.045,-0.099 -0.136,-0.017 -0.182,0.019 -0.028,0.064 -0.118,0.046 -0.182,0.082 -0.172,-0.082 -0.063,-0.274 -0.109,-0.401 -0.127,-0.073 -0.245,0.118 -0.345,0 -0.173,-0.274 -0.501,-0.356 -0.8,-0.31 -0.046,0.137 0.091,0.301 0.208,0.392 0.019,0.009 0.019,0.036 0.019,0.055 -0.027,0.036 -0.064,0.054 -0.119,0.045 -0.163,-0.064 -0.281,-0.227 -0.454,-0.182 -0.054,0.137 0.082,0.237 0.146,0.328 0.054,0.046 0.163,0.037 0.163,0.137 -0.173,0.109 -0.309,-0.064 -0.454,-0.1 -0.046,0.209 0.227,0.237 0.354,0.328 0.1,0 0.228,0 0.309,-0.064 0.31,-0.082 0.628,0.119 0.809,0.374 0.21,0.574 0.073,1.067 0.11,1.696 0.127,0.209 0.191,0.501 0.445,0.62 z"
             style="fill:#06121e;fill-opacity:1;fill-rule:evenodd;stroke:none"
             id="path266"
             inkscape:connector-curvature="0" /></g><g
           id="g268"
           transform="translate(350.4662,548.3912)"><path
             d="M 0,0 -0.029,-0.059 C -0.097,-0.473 0.03,-0.867 -0.069,-1.232 -0.107,-1.32 -0.245,-1.33 -0.334,-1.3 c -0.127,0.226 0.04,0.443 -0.088,0.68 0.059,0.344 -0.127,0.797 0.157,1.113 C 0.03,0.493 -0.059,0.167 0,0"
             style="fill:#fff30d;fill-opacity:1;fill-rule:evenodd;stroke:none"
             id="path270"
             inkscape:connector-curvature="0" /></g><g
           id="g272"
           transform="translate(349.8675,548.6182)"><path
             d="m 0,0 c 0.098,-0.424 0.039,-0.976 0.059,-1.469 0,-0.058 -0.07,-0.108 -0.109,-0.127 -0.038,0.019 -0.108,0 -0.146,-0.04 -0.226,0.374 -0.08,0.838 -0.119,1.281 0.03,0.168 0.069,0.295 0.197,0.404 C -0.068,0.059 -0.03,0.039 0,0"
             style="fill:#fff30d;fill-opacity:1;fill-rule:evenodd;stroke:none"
             id="path274"
             inkscape:connector-curvature="0" /></g><g
           id="g276"
           transform="translate(350.8795,548.5982)"><path
             d="M 0,0 C 0.079,-0.424 -0.02,-0.828 0.02,-1.33 -0.049,-1.389 0,-1.507 -0.089,-1.537 c -0.089,-0.03 -0.157,0.03 -0.176,0.098 -0.02,0.424 -0.049,0.858 0,1.321 C -0.216,-0.03 -0.137,0.109 0,0"
             style="fill:#fff30d;fill-opacity:1;fill-rule:evenodd;stroke:none"
             id="path278"
             inkscape:connector-curvature="0" /></g><g
           id="g280"
           transform="translate(349.4251,548.0366)"><path
             d="m 0,0 c 0,-0.374 0.01,-0.719 -0.049,-1.084 -0.039,-0.098 -0.167,-0.029 -0.216,-0.148 0.019,-0.088 0.107,-0.138 0.177,-0.177 0.186,-0.03 0.314,0.069 0.481,0.059 0.148,0.059 0.334,-0.039 0.462,0.069 C 1.071,-1.31 1.356,-1.202 1.504,-1.37 1.444,-1.596 1.13,-1.527 0.953,-1.636 0.825,-1.685 0.679,-1.685 0.57,-1.793 0.56,-2.099 0.481,-2.404 0.638,-2.661 c 0.05,0.03 0.128,0.109 0.05,0.178 l 0.039,0.473 c 0.128,0.187 0.354,0.197 0.55,0.286 0.118,0.049 0.354,0.029 0.443,0.157 0.02,0.325 -0.138,0.641 0.117,0.887 0.168,-0.01 0.09,-0.344 0.344,-0.296 0.04,-0.098 0,-0.236 -0.038,-0.344 0,-0.335 0,-0.729 0.019,-1.064 C 2.054,-2.7 1.828,-3.084 1.435,-3.104 1.366,-3.143 1.327,-3.182 1.297,-3.252 1.327,-3.35 1.474,-3.291 1.474,-3.429 1.504,-3.596 1.504,-3.783 1.395,-3.942 1.209,-3.951 1.022,-3.991 0.855,-4.05 c -0.148,0.089 -0.344,0.049 -0.501,0.108 -0.089,0 -0.158,-0.068 -0.246,-0.019 0.01,0.187 -0.01,0.453 -0.049,0.66 -0.098,0.109 -0.206,0.197 -0.324,0.266 -0.206,0.877 -0.138,1.784 -0.03,2.621 -0.009,0.217 0.02,0.473 0.137,0.641 C 0.029,0.286 -0.078,0.059 0,0"
             style="fill:#fff30d;fill-opacity:1;fill-rule:evenodd;stroke:none"
             id="path282"
             inkscape:connector-curvature="0" /></g><g
           id="g284"
           transform="translate(341.848,542.0557)"><path
             d="m 0,0 -1.176,-1.959 1.195,-2.219 1.156,2.239 z"
             style="fill:#06121e;fill-opacity:1;fill-rule:evenodd;stroke:none"
             id="path286"
             inkscape:connector-curvature="0" /></g><g
           id="g288"
           transform="translate(358.9615,542.1758)"><path
             d="M 0,0 -1.176,-1.959 0.02,-4.178 1.175,-1.939 Z"
             style="fill:#06121e;fill-opacity:1;fill-rule:evenodd;stroke:none"
             id="path290"
             inkscape:connector-curvature="0" /></g><g
           id="g292"
           transform="translate(331.2851,532.4797)"><path
             d="M 0,0 C 0,0 -0.216,1.334 0,1.911 0.216,2.488 0.971,3.317 1.654,3.317 2.337,3.317 3.2,2.416 3.344,1.875 3.487,1.334 3.236,0.577 3.2,-0.036 3.164,-0.648 3.236,-1.658 3.236,-1.658 l -3.02,0.757 z"
             style="fill:#06121e;fill-opacity:1;fill-rule:evenodd;stroke:none"
             id="path294"
             inkscape:connector-curvature="0" /></g><g
           id="g296"
           transform="translate(331.4591,534.3263)"><path
             d="M 0,0 C -0.191,-0.51 -0.006,-1.716 0.009,-1.812 L 0.195,-2.594 2.86,-3.262 c -0.019,0.343 -0.045,0.96 -0.02,1.391 0.013,0.223 0.053,0.459 0.092,0.696 0.07,0.416 0.141,0.839 0.059,1.153 L 2.99,-0.019 C 2.896,0.331 2.46,0.853 1.986,1.124 1.896,1.175 1.806,1.216 1.72,1.243 1.637,1.269 1.557,1.284 1.481,1.284 v 0 H 1.48 C 1.053,1.284 0.579,0.891 0.27,0.474 0.209,0.392 0.154,0.309 0.108,0.227 0.064,0.148 0.027,0.071 0,0 m -0.357,-1.875 c -0.001,0.004 -0.224,1.381 0.009,2.004 V 0.13 0.131 c 0.034,0.089 0.079,0.184 0.134,0.28 0.053,0.094 0.116,0.19 0.186,0.285 0.367,0.495 0.951,0.961 1.508,0.961 H 1.481 V 1.656 C 1.596,1.656 1.714,1.635 1.832,1.597 1.945,1.561 2.059,1.51 2.169,1.447 2.72,1.133 3.235,0.505 3.349,0.076 L 3.35,0.072 C 3.453,-0.318 3.375,-0.781 3.299,-1.236 3.261,-1.464 3.223,-1.691 3.211,-1.893 3.176,-2.493 3.246,-3.488 3.247,-3.492 l 0.019,-0.256 -0.249,0.063 -3.02,0.757 -0.109,0.027 -0.027,0.11 -0.215,0.901 z"
             style="fill:#fab41d;fill-opacity:1;fill-rule:nonzero;stroke:none"
             id="path298"
             inkscape:connector-curvature="0" /></g><g
           id="g300"
           transform="translate(334.5567,533.2006)"><path
             d="m 0,0 c 0,0 -1.222,0.036 -1.654,-0.396 -0.431,-0.433 -0.683,-0.685 -0.611,-0.973 0.072,-0.289 0.827,-0.361 1.151,-0.433 0.323,-0.072 1.078,-0.108 1.078,-0.108 0,0 -0.036,0.901 -0.036,1.297 C -0.072,-0.216 0,0 0,0"
             style="fill:#06121e;fill-opacity:1;fill-rule:evenodd;stroke:none"
             id="path302"
             inkscape:connector-curvature="0" /></g><g
           id="g304"
           transform="translate(332.7723,532.9365)"><path
             d="M 0,0 C 0.487,0.489 1.786,0.45 1.789,0.45 L 2.039,0.443 1.96,0.206 c 0,0 -0.061,-0.186 -0.061,-0.554 0,-0.408 0.034,-1.288 0.035,-1.291 l 0.008,-0.203 -0.202,0.01 c -0.002,0 -0.77,0.037 -1.111,0.113 -0.042,0.009 -0.121,0.023 -0.209,0.039 -0.411,0.073 -0.992,0.177 -1.081,0.528 v 0 10e-4 c -0.051,0.205 0.006,0.387 0.145,0.585 0.119,0.168 0.294,0.344 0.515,0.566 z M 1.556,0.077 C 1.204,0.066 0.534,0.008 0.262,-0.264 H 0.263 C 0.052,-0.475 -0.115,-0.642 -0.211,-0.78 -0.288,-0.888 -0.321,-0.976 -0.3,-1.06 v 0 c 0.03,-0.118 0.472,-0.197 0.785,-0.253 0.077,-0.014 0.147,-0.026 0.225,-0.043 0.205,-0.046 0.603,-0.077 0.845,-0.092 -0.011,0.293 -0.029,0.828 -0.029,1.1 0,0.173 0.014,0.316 0.03,0.425"
             style="fill:#fab41d;fill-opacity:1;fill-rule:nonzero;stroke:none"
             id="path306"
             inkscape:connector-curvature="0" /></g><g
           id="g308"
           transform="translate(331.8244,528.2983)"><path
             d="m 0,0 c 0,0 -0.719,1.406 -0.791,2.451 -0.072,1.046 0.18,2.019 0.18,2.019 0,0 0.862,-0.829 1.438,-1.081 C 1.402,3.136 3.775,2.812 4.171,2.668 4.566,2.523 5.5,1.983 5.572,1.442 5.644,0.901 5.464,-0.722 5.285,-1.01 5.105,-1.298 4.818,-1.478 4.818,-1.478 l -4.746,0.937 z"
             style="fill:#06121e;fill-opacity:1;fill-rule:evenodd;stroke:none"
             id="path310"
             inkscape:connector-curvature="0" /></g><g
           id="g312"
           transform="translate(331.219,530.7621)"><path
             d="m 0,0 c 0.069,-1.008 0.768,-2.375 0.77,-2.379 l 0.02,-0.06 0.054,-0.408 4.538,-0.897 c 0.083,0.062 0.24,0.192 0.35,0.37 0.115,0.183 0.233,1.038 0.267,1.703 0.007,0.134 0.01,0.256 0.009,0.362 0,0.104 -0.005,0.193 -0.014,0.262 v 0.002 c -0.042,0.316 -0.495,0.66 -0.88,0.88 -0.075,0.043 -0.15,0.082 -0.223,0.117 -0.07,0.033 -0.13,0.059 -0.177,0.077 H 4.713 C 4.563,0.083 4.072,0.172 3.51,0.273 2.689,0.422 1.722,0.596 1.362,0.752 L 1.361,0.753 1.358,0.754 C 0.95,0.933 0.414,1.378 0.108,1.65 0.041,1.289 -0.046,0.66 0,0 m 0.426,-2.519 c -0.105,0.21 -0.729,1.501 -0.797,2.494 -0.074,1.075 0.184,2.073 0.185,2.077 L -0.109,2.363 0.123,2.141 C 0.125,2.138 0.958,1.337 1.503,1.097 v 0 L 1.504,1.096 1.507,1.095 C 1.827,0.955 2.773,0.784 3.576,0.64 4.155,0.535 4.662,0.443 4.839,0.379 H 4.84 C 4.904,0.355 4.976,0.325 5.051,0.289 5.124,0.254 5.207,0.21 5.297,0.159 5.757,-0.104 6.301,-0.538 6.362,-0.998 V -0.999 C 6.373,-1.082 6.378,-1.187 6.379,-1.307 6.38,-1.425 6.377,-1.554 6.37,-1.689 6.333,-2.401 6.192,-3.34 6.048,-3.571 5.845,-3.897 5.522,-4.1 5.521,-4.1 L 5.458,-4.139 5.387,-4.125 0.642,-3.188 0.511,-3.162 0.493,-3.029 Z"
             style="fill:#fab41d;fill-opacity:1;fill-rule:nonzero;stroke:none"
             id="path314"
             inkscape:connector-curvature="0" /></g><g
           id="g316"
           transform="translate(368.9398,532.3857)"><path
             d="m 0,0 c 0,0 0.217,1.335 0,1.911 -0.215,0.577 -0.97,1.406 -1.653,1.406 -0.683,0 -1.546,-0.901 -1.689,-1.442 -0.144,-0.541 0.107,-1.298 0.143,-1.911 0.036,-0.612 -0.036,-1.622 -0.036,-1.622 l 3.02,0.757 z"
             style="fill:#06121e;fill-opacity:1;fill-rule:evenodd;stroke:none"
             id="path318"
             inkscape:connector-curvature="0" /></g><g
           id="g320"
           transform="translate(369.1143,534.3619)"><path
             d="m 0,0 c 0.233,-0.623 0.011,-2 0.009,-2.004 0,-0.005 -10e-4,-0.01 -0.002,-0.015 L -0.206,-2.906 C -0.217,-2.977 -0.27,-3.039 -0.344,-3.058 l -3.02,-0.757 v 0 c -0.019,-0.004 -0.039,-0.006 -0.058,-0.005 -0.102,0.007 -0.18,0.096 -0.173,0.199 0,0.003 0.071,0.999 0.036,1.598 -0.011,0.203 -0.049,0.429 -0.087,0.657 -0.077,0.453 -0.153,0.915 -0.052,1.305 l 10e-4,0.008 c 0.114,0.428 0.628,1.057 1.181,1.371 0.11,0.063 0.223,0.114 0.337,0.15 0.117,0.038 0.236,0.058 0.35,0.059 v 0 h 10e-4 c 0.557,0 1.141,-0.466 1.509,-0.961 0.07,-0.094 0.132,-0.19 0.186,-0.284 0.054,-0.097 0.099,-0.192 0.132,-0.281 v 0 V 0 Z m -0.356,-1.94 c 0.017,0.106 0.198,1.303 0.009,1.81 h -0.001 c -0.027,0.072 -0.063,0.149 -0.108,0.228 -0.046,0.081 -0.1,0.165 -0.162,0.247 -0.309,0.416 -0.782,0.809 -1.21,0.809 H -1.829 V 1.155 C -1.904,1.155 -1.985,1.14 -2.068,1.113 -2.154,1.086 -2.244,1.045 -2.334,0.994 -2.807,0.724 -3.244,0.201 -3.337,-0.149 L -3.34,-0.156 c -0.08,-0.313 -0.009,-0.735 0.06,-1.148 0.04,-0.238 0.079,-0.474 0.093,-0.697 0.025,-0.431 -0.002,-1.047 -0.021,-1.39 l 2.665,0.668 z"
             style="fill:#fab41d;fill-opacity:1;fill-rule:nonzero;stroke:none"
             id="path322"
             inkscape:connector-curvature="0" /></g><g
           id="g324"
           transform="translate(365.6692,533.1074)"><path
             d="M 0,0 C 0,0 1.222,0.036 1.654,-0.397 2.085,-0.829 2.337,-1.082 2.265,-1.37 2.193,-1.658 1.438,-1.731 1.114,-1.803 0.791,-1.875 0.036,-1.911 0.036,-1.911 c 0,0 0.036,0.901 0.036,1.298 C 0.072,-0.216 0,0 0,0"
             style="fill:#06121e;fill-opacity:1;fill-rule:evenodd;stroke:none"
             id="path326"
             inkscape:connector-curvature="0" /></g><g
           id="g328"
           transform="translate(367.191,532.5794)"><path
             d="m 0,0 c -0.272,0.271 -0.942,0.329 -1.293,0.34 0.016,-0.109 0.029,-0.252 0.029,-0.425 0,-0.272 -0.018,-0.806 -0.029,-1.1 0.242,0.015 0.641,0.046 0.846,0.092 0.077,0.017 0.147,0.03 0.224,0.044 0.314,0.055 0.755,0.135 0.786,0.252 v 0 c 0.02,0.084 -0.013,0.173 -0.088,0.281 -0.1,0.14 -0.265,0.306 -0.474,0.515 z m -1.527,0.714 c 0.004,0 1.301,0.038 1.79,-0.45 0.222,-0.224 0.398,-0.4 0.515,-0.566 0.14,-0.199 0.196,-0.381 0.145,-0.585 v -0.001 -0.001 0 C 0.834,-1.24 0.254,-1.343 -0.158,-1.417 c -0.087,-0.015 -0.167,-0.029 -0.209,-0.039 -0.341,-0.076 -1.108,-0.113 -1.11,-0.113 -0.103,-0.005 -0.19,0.075 -0.194,0.178 v 0.021 c 0.003,0.074 0.034,0.896 0.034,1.285 0,0.369 -0.061,0.554 -0.061,0.555 -0.032,0.097 0.021,0.202 0.118,0.234 0.017,0.007 0.036,0.009 0.053,0.01"
             style="fill:#fab41d;fill-opacity:1;fill-rule:nonzero;stroke:none"
             id="path330"
             inkscape:connector-curvature="0" /></g><g
           id="g332"
           transform="translate(368.4009,528.2044)"><path
             d="M 0,0 C 0,0 0.719,1.406 0.792,2.451 0.863,3.497 0.611,4.47 0.611,4.47 c 0,0 -0.862,-0.829 -1.437,-1.081 C -1.401,3.136 -3.775,2.812 -4.17,2.668 -4.565,2.524 -5.5,1.983 -5.573,1.442 c -0.07,-0.54 0.109,-2.163 0.288,-2.451 0.181,-0.289 0.468,-0.469 0.468,-0.469 l 4.745,0.937 z"
             style="fill:#06121e;fill-opacity:1;fill-rule:evenodd;stroke:none"
             id="path334"
             inkscape:connector-curvature="0" /></g><g
           id="g336"
           transform="translate(369.378,530.6434)"><path
             d="M 0,0 C -0.069,-0.994 -0.694,-2.286 -0.796,-2.494 L -0.862,-2.99 C -0.867,-3.073 -0.927,-3.146 -1.013,-3.162 L -5.758,-4.1 c -0.045,-0.008 -0.093,-0.001 -0.134,0.025 -10e-4,0.001 -0.325,0.203 -0.527,0.528 -0.144,0.231 -0.285,1.171 -0.322,1.882 -0.007,0.136 -0.01,0.265 -0.009,0.383 0.001,0.119 0.006,0.225 0.017,0.308 v 0.001 c 0.062,0.46 0.605,0.894 1.064,1.157 0.09,0.051 0.174,0.095 0.247,0.13 0.075,0.036 0.146,0.066 0.211,0.089 l 0.001,0.001 c 0.176,0.065 0.683,0.156 1.261,0.26 0.798,0.144 1.737,0.314 2.063,0.453 l 0.011,0.004 10e-4,0.001 c 0.517,0.228 1.294,0.962 1.373,1.037 0.024,0.025 0.055,0.044 0.09,0.053 0.1,0.025 0.201,-0.036 0.226,-0.136 C -0.184,2.073 0.074,1.075 0,0 m -1.138,-2.347 c 0.054,0.107 0.7,1.404 0.767,2.372 0.045,0.66 -0.042,1.289 -0.109,1.649 C -0.786,1.403 -1.321,0.958 -1.729,0.779 H -1.73 L -1.732,0.778 -1.733,0.777 -1.739,0.775 C -2.103,0.62 -3.066,0.445 -3.883,0.298 -4.443,0.197 -4.935,0.108 -5.084,0.054 L -5.085,0.053 C -5.133,0.036 -5.192,0.01 -5.262,-0.024 -5.335,-0.058 -5.411,-0.097 -5.486,-0.14 -5.87,-0.359 -6.323,-0.704 -6.365,-1.021 l -10e-4,-0.001 c -0.009,-0.069 -0.013,-0.159 -0.013,-0.262 -0.001,-0.105 0.002,-0.228 0.009,-0.361 0.034,-0.666 0.152,-1.521 0.266,-1.705 0.111,-0.177 0.268,-0.307 0.351,-0.369 l 4.538,0.897 0.055,0.407 c 0.003,0.025 0.011,0.048 0.022,0.068"
             style="fill:#fab41d;fill-opacity:1;fill-rule:nonzero;stroke:none"
             id="path338"
             inkscape:connector-curvature="0" /></g><g
           id="g340"
           transform="translate(331.7044,528.5768)"><path
             d="m 0,0 c 0,0 5.248,-0.355 8.608,-3.134 3.362,-2.779 7.409,-5.571 10.144,-5.499 2.24,0.059 6.132,2.246 8.195,3.962 2.064,1.714 4.364,3.488 6.192,3.961 1.828,0.473 3.419,0.296 3.419,0.296 10e-4,0 0.532,-0.769 0.355,-1.892 -0.177,-1.124 -0.59,-2.129 -0.944,-2.484 -0.354,-0.354 -1.886,-0.177 -3.184,-0.946 -1.297,-0.768 -3.891,-2.661 -5.366,-4.02 -1.474,-1.36 -4.212,-3.129 -8.834,-3.16 C 13.563,-12.949 9.109,-9.462 7.666,-8.278 5.72,-6.682 3.42,-5.44 2.299,-5.026 1.179,-4.612 0.707,-4.731 0.354,-4.198 0,-3.666 -0.472,-1.537 -0.236,-0.769 Z"
             style="fill:#06121e;fill-opacity:1;fill-rule:evenodd;stroke:none"
             id="path342"
             inkscape:connector-curvature="0" /></g><g
           id="g344"
           transform="translate(340.1955,525.2991)"><path
             d="M 0,0 C -2.99,2.473 -7.495,2.999 -8.358,3.079 L -8.55,2.454 c -0.158,-0.518 0.036,-1.728 0.284,-2.563 0.048,-0.163 0.098,-0.31 0.147,-0.432 0.047,-0.116 0.092,-0.209 0.135,-0.273 l 0.002,-0.005 c 0.19,-0.284 0.444,-0.349 0.875,-0.458 0.26,-0.067 0.577,-0.148 0.979,-0.296 0.817,-0.302 2.25,-1.036 3.72,-2.025 0.288,-0.193 0.575,-0.395 0.857,-0.604 0.289,-0.212 0.571,-0.43 0.842,-0.653 l 0.001,-10e-4 c 0.717,-0.588 2.181,-1.748 4.086,-2.755 1.9,-1.004 4.24,-1.858 6.716,-1.841 2.282,0.015 4.098,0.459 5.525,1.066 1.423,0.606 2.458,1.376 3.183,2.044 1.067,0.984 2.718,2.246 4.044,3.163 0.258,0.179 0.504,0.344 0.732,0.493 0.232,0.151 0.441,0.281 0.621,0.389 0.783,0.463 1.634,0.594 2.284,0.695 0.418,0.064 0.745,0.114 0.857,0.215 l 0.006,0.007 h 0.001 v 0 0 c 0.234,0.234 0.5,0.796 0.698,1.497 0.039,0.134 0.074,0.279 0.107,0.43 0.034,0.154 0.063,0.306 0.086,0.451 V 1 c 0.135,0.854 -0.163,1.482 -0.279,1.687 -0.357,0.028 -1.723,0.1 -3.265,-0.299 -0.89,-0.23 -1.902,-0.783 -2.949,-1.49 -1.056,-0.713 -2.143,-1.581 -3.17,-2.435 -1.497,-1.243 -3.947,-2.734 -6.049,-3.497 -0.412,-0.149 -0.81,-0.271 -1.187,-0.358 -0.379,-0.088 -0.738,-0.139 -1.067,-0.149 v 0 H 10.264 C 8.859,-5.578 7.131,-4.888 5.33,-3.836 3.548,-2.795 1.688,-1.395 0,0 m -8.478,3.464 c 0.015,-0.002 5.306,-0.359 8.714,-3.177 1.673,-1.383 3.517,-2.77 5.281,-3.801 1.747,-1.02 3.41,-1.69 4.739,-1.655 h 0.007 c 0.3,0.008 0.635,0.058 0.993,0.14 0.363,0.084 0.747,0.201 1.145,0.346 2.06,0.747 4.467,2.211 5.937,3.433 1.035,0.861 2.132,1.736 3.198,2.457 1.077,0.728 2.128,1.298 3.066,1.541 1.861,0.482 3.481,0.301 3.485,0.301 0.058,-0.006 0.107,-0.038 0.137,-0.084 0.037,-0.056 0.563,-0.866 0.381,-2.022 V 0.942 C 28.579,0.773 28.548,0.614 28.516,0.466 28.483,0.316 28.445,0.165 28.403,0.016 28.188,-0.744 27.885,-1.367 27.61,-1.644 v 0 0 c -0.005,-0.004 -0.009,-0.008 -0.014,-0.012 -0.195,-0.183 -0.573,-0.241 -1.058,-0.316 -0.619,-0.095 -1.43,-0.219 -2.15,-0.646 v -0.001 c -0.183,-0.108 -0.387,-0.236 -0.608,-0.38 -0.224,-0.146 -0.467,-0.309 -0.723,-0.486 -1.314,-0.909 -2.948,-2.157 -4.003,-3.131 -0.75,-0.691 -1.82,-1.486 -3.29,-2.112 -1.466,-0.625 -3.33,-1.08 -5.669,-1.096 -2.548,-0.017 -4.947,0.856 -6.89,1.883 -1.938,1.025 -3.423,2.201 -4.148,2.796 l -0.002,10e-4 c -0.273,0.224 -0.549,0.439 -0.826,0.643 -0.281,0.208 -0.564,0.406 -0.843,0.594 -1.444,0.97 -2.845,1.69 -3.642,1.984 -0.382,0.141 -0.69,0.219 -0.943,0.284 -0.518,0.132 -0.823,0.209 -1.093,0.616 v 0 l -10e-4,0.002 h -0.001 l -10e-4,10e-4 c -0.055,0.085 -0.113,0.201 -0.169,0.34 -0.054,0.136 -0.108,0.293 -0.159,0.465 -0.263,0.885 -0.462,2.19 -0.281,2.779 l 0.235,0.768 c 0.027,0.085 0.107,0.137 0.191,0.131 z"
             style="fill:#fab41d;fill-opacity:1;fill-rule:nonzero;stroke:none"
             id="path346"
             inkscape:connector-curvature="0" /></g><g
           id="g348"
           transform="translate(342.2857,548.6965)"><path
             d="M 0,0 C -0.034,0.059 -0.013,0.135 0.046,0.169 0.106,0.202 0.181,0.182 0.215,0.122 L 2.609,-4.084 C 2.643,-4.143 2.622,-4.219 2.562,-4.253 2.503,-4.287 2.428,-4.266 2.393,-4.206 Z"
             style="fill:#fff30d;fill-opacity:1;fill-rule:nonzero;stroke:none"
             id="path350"
             inkscape:connector-curvature="0" /></g><g
           id="g352"
           transform="translate(342.3637,544.4005)"><path
             d="m 0,0 c -0.033,-0.059 -0.109,-0.08 -0.168,-0.047 -0.06,0.034 -0.081,0.11 -0.047,0.17 l 2.394,4.206 c 0.034,0.06 0.109,0.08 0.169,0.047 0.059,-0.034 0.08,-0.11 0.046,-0.17 z"
             style="fill:#fff30d;fill-opacity:1;fill-rule:nonzero;stroke:none"
             id="path354"
             inkscape:connector-curvature="0" /></g><g
           id="g356"
           transform="translate(342.6702,546.4335)"><path
             d="M 0,0 C 0,1.291 0.369,2.336 0.825,2.336 1.282,2.336 1.651,1.291 1.651,0 1.651,-1.291 1.282,-2.337 0.825,-2.337 0.369,-2.337 0,-1.291 0,0"
             style="fill:#fff200;fill-opacity:1;fill-rule:evenodd;stroke:none"
             id="path358"
             inkscape:connector-curvature="0" /></g><g
           id="g360"
           transform="translate(342.6824,546.1456)"><path
             d="m 0,0 c 0,0 0.544,-0.102 0.812,-0.096 0.269,0.007 0.811,0.132 0.811,0.132 0,0 0.018,-0.096 0.006,-0.21 -0.012,-0.113 -0.036,-0.293 -0.036,-0.293 0,0 -0.668,-0.125 -0.8,-0.125 -0.131,0 -0.757,0.071 -0.757,0.071 z"
             style="fill:#06121e;fill-opacity:1;fill-rule:evenodd;stroke:none"
             id="path362"
             inkscape:connector-curvature="0" /></g><g
           id="g364"
           transform="translate(342.7602,545.3315)"><path
             d="M 0,0 C 0,0 0.477,-0.119 0.74,-0.107 1.003,-0.095 1.462,0 1.462,0 1.462,0 1.39,-0.389 1.348,-0.466 1.306,-0.544 0.847,-0.568 0.746,-0.562 0.644,-0.556 0.149,-0.52 0.131,-0.49 0.113,-0.461 0.006,-0.053 0,0"
             style="fill:#06121e;fill-opacity:1;fill-rule:evenodd;stroke:none"
             id="path366"
             inkscape:connector-curvature="0" /></g><g
           id="g368"
           transform="translate(342.9989,544.5839)"><path
             d="m 0,0 c 0,0 0.436,-0.114 0.555,-0.09 0.119,0.024 0.429,0.048 0.453,0.09 0,0 -0.137,-0.251 -0.179,-0.293 -0.041,-0.042 -0.322,-0.024 -0.393,-0.024 -0.072,0 -0.251,0.012 -0.299,0.06 -0.047,0.048 -0.155,0.227 -0.155,0.251 z"
             style="fill:#06121e;fill-opacity:1;fill-rule:evenodd;stroke:none"
             id="path370"
             inkscape:connector-curvature="0" /></g><g
           id="g372"
           transform="translate(343.0305,547.9541)"><path
             d="M 0,0 C 0,0 0.108,0.364 0.255,0.452 0.402,0.541 0.529,0.609 0.676,0.462 0.823,0.314 0.843,0.246 0.872,0.128 0.902,0.01 0.912,-0.059 0.912,-0.059 H -0.01 Z"
             style="fill:#06121e;fill-opacity:1;fill-rule:evenodd;stroke:none"
             id="path374"
             inkscape:connector-curvature="0" /></g><g
           id="g376"
           transform="translate(346.3539,545.9586)"><path
             d="M 0,0 C -0.106,-0.381 -1.473,-0.329 -3.051,0.115 -4.631,0.559 -5.824,1.228 -5.718,1.609 -5.611,1.99 -4.245,1.938 -2.666,1.494 -1.087,1.049 0.107,0.381 0,0"
             style="fill:#fff30d;fill-opacity:1;fill-rule:evenodd;stroke:none"
             id="path378"
             inkscape:connector-curvature="0" /></g><g
           id="g380"
           transform="translate(346.5052,547.5688)"><path
             d="m 0,0 c -0.053,0.379 -1.429,0.291 -3.074,-0.196 -1.645,-0.486 -2.936,-1.188 -2.884,-1.566 0.054,-0.379 1.429,-0.291 3.075,0.196 C -1.238,-1.08 0.053,-0.379 0,0"
             style="fill:#fff30d;fill-opacity:1;fill-rule:evenodd;stroke:none"
             id="path382"
             inkscape:connector-curvature="0" /></g><g
           id="g384"
           transform="translate(342.7318,546.4382)"><path
             d="m 0,0 v 0 -0.001 c 0,-0.888 0.176,-1.656 0.433,-2.037 0.047,-0.07 0.097,-0.126 0.149,-0.167 0.059,-0.046 0.12,-0.071 0.181,-0.071 v 0 h 0.001 v 0 c 0.199,0 0.385,0.246 0.525,0.643 0.147,0.417 0.239,0.994 0.239,1.631 v 0 0.001 V 0 0 c 0,0.638 -0.092,1.214 -0.239,1.631 -0.14,0.397 -0.326,0.643 -0.525,0.643 v 0 H 0.763 v 0 C 0.565,2.274 0.379,2.028 0.239,1.631 0.092,1.214 0,0.638 0,0 M -0.124,-0.001 V 0 0 c 0,0.653 0.094,1.244 0.246,1.672 0.158,0.448 0.384,0.726 0.641,0.726 v 0 h 0.001 v 0 C 1.021,2.398 1.248,2.12 1.406,1.672 1.557,1.244 1.651,0.653 1.651,0 v 0 -0.001 -0.001 0 C 1.651,-0.654 1.557,-1.245 1.406,-1.674 1.248,-2.122 1.021,-2.399 0.764,-2.4 v 0 H 0.763 v 0 c -0.09,0 -0.176,0.034 -0.257,0.097 -0.062,0.048 -0.12,0.114 -0.176,0.196 -0.27,0.4 -0.454,1.194 -0.454,2.106"
             style="fill:#fff30d;fill-opacity:1;fill-rule:nonzero;stroke:none"
             id="path386"
             inkscape:connector-curvature="0" /></g><g
           id="g388"
           transform="translate(355.8258,548.6965)"><path
             d="M 0,0 C -0.033,0.059 -0.013,0.135 0.047,0.169 0.106,0.202 0.182,0.182 0.215,0.122 L 2.609,-4.084 C 2.643,-4.143 2.622,-4.219 2.562,-4.253 2.504,-4.287 2.428,-4.266 2.394,-4.206 Z"
             style="fill:#fff30d;fill-opacity:1;fill-rule:nonzero;stroke:none"
             id="path390"
             inkscape:connector-curvature="0" /></g><g
           id="g392"
           transform="translate(355.9042,544.4005)"><path
             d="m 0,0 c -0.034,-0.059 -0.109,-0.08 -0.169,-0.047 -0.059,0.034 -0.08,0.11 -0.046,0.17 l 2.394,4.206 c 0.033,0.06 0.109,0.08 0.168,0.047 0.06,-0.034 0.081,-0.11 0.046,-0.17 z"
             style="fill:#fff30d;fill-opacity:1;fill-rule:nonzero;stroke:none"
             id="path394"
             inkscape:connector-curvature="0" /></g><g
           id="g396"
           transform="translate(356.2104,546.4335)"><path
             d="M 0,0 C 0,1.291 0.37,2.336 0.825,2.336 1.281,2.336 1.651,1.291 1.651,0 1.651,-1.291 1.281,-2.337 0.825,-2.337 0.37,-2.337 0,-1.291 0,0"
             style="fill:#fff30d;fill-opacity:1;fill-rule:evenodd;stroke:none"
             id="path398"
             inkscape:connector-curvature="0" /></g><g
           id="g400"
           transform="translate(356.2233,546.1456)"><path
             d="m 0,0 c 0,0 0.542,-0.102 0.811,-0.096 0.269,0.007 0.812,0.132 0.812,0.132 0,0 0.018,-0.096 0.006,-0.21 -0.012,-0.113 -0.036,-0.293 -0.036,-0.293 0,0 -0.668,-0.125 -0.799,-0.125 -0.132,0 -0.758,0.071 -0.758,0.071 z"
             style="fill:#06121e;fill-opacity:1;fill-rule:evenodd;stroke:none"
             id="path402"
             inkscape:connector-curvature="0" /></g><g
           id="g404"
           transform="translate(357.7626,545.3315)"><path
             d="m 0,0 c 0,0 -0.072,-0.389 -0.113,-0.466 -0.042,-0.078 -0.502,-0.102 -0.604,-0.096 -0.1,0.006 -0.596,0.042 -0.613,0.072 -0.019,0.029 -0.126,0.437 -0.132,0.49 0,0 0.477,-0.119 0.74,-0.107"
             style="fill:#06121e;fill-opacity:1;fill-rule:evenodd;stroke:none"
             id="path406"
             inkscape:connector-curvature="0" /></g><g
           id="g408"
           transform="translate(356.5393,544.5839)"><path
             d="M 0,0 C 0,0 0.435,-0.114 0.555,-0.09 0.674,-0.066 0.984,-0.042 1.009,0 1.009,0 0.871,-0.251 0.83,-0.293 0.787,-0.335 0.506,-0.317 0.435,-0.317 c -0.072,0 -0.25,0.012 -0.298,0.06 -0.047,0.048 -0.155,0.227 -0.155,0.251 z"
             style="fill:#06121e;fill-opacity:1;fill-rule:evenodd;stroke:none"
             id="path410"
             inkscape:connector-curvature="0" /></g><g
           id="g412"
           transform="translate(356.5716,547.9541)"><path
             d="M 0,0 C 0,0 0.107,0.364 0.254,0.452 0.401,0.541 0.528,0.609 0.675,0.462 0.823,0.314 0.842,0.246 0.872,0.128 0.901,0.01 0.911,-0.059 0.911,-0.059 H -0.01 Z"
             style="fill:#06121e;fill-opacity:1;fill-rule:evenodd;stroke:none"
             id="path414"
             inkscape:connector-curvature="0" /></g><g
           id="g416"
           transform="translate(359.8943,545.9586)"><path
             d="M 0,0 C -0.106,-0.381 -1.472,-0.329 -3.052,0.115 -4.631,0.559 -5.824,1.228 -5.718,1.609 -5.611,1.99 -4.245,1.938 -2.666,1.494 -1.087,1.049 0.107,0.381 0,0"
             style="fill:#fff30d;fill-opacity:1;fill-rule:evenodd;stroke:none"
             id="path418"
             inkscape:connector-curvature="0" /></g><g
           id="g420"
           transform="translate(360.0459,547.5688)"><path
             d="m 0,0 c -0.053,0.379 -1.428,0.291 -3.074,-0.196 -1.645,-0.486 -2.937,-1.188 -2.884,-1.566 0.052,-0.379 1.429,-0.291 3.074,0.196 C -1.239,-1.08 0.053,-0.379 0,0"
             style="fill:#fff30d;fill-opacity:1;fill-rule:evenodd;stroke:none"
             id="path422"
             inkscape:connector-curvature="0" /></g><g
           id="g424"
           transform="translate(356.2717,546.4382)"><path
             d="m 0,0 h 0.001 v -0.001 c 0,-0.888 0.175,-1.656 0.432,-2.037 0.047,-0.07 0.098,-0.126 0.15,-0.167 0.059,-0.046 0.12,-0.071 0.18,-0.071 v 0 h 0.001 v 0 c 0.199,0 0.385,0.246 0.525,0.643 0.148,0.417 0.239,0.994 0.239,1.631 H 1.527 V -0.001 0 h 0.001 c 0,0.638 -0.091,1.214 -0.239,1.631 -0.14,0.397 -0.326,0.643 -0.525,0.643 v 0 H 0.763 v 0 C 0.565,2.274 0.38,2.028 0.239,1.631 0.092,1.214 0,0.638 0,0 M -0.123,-0.001 V 0 c 0,0.653 0.094,1.244 0.245,1.672 0.158,0.448 0.385,0.726 0.641,0.726 v 0 h 0.001 v 0 C 1.021,2.398 1.248,2.12 1.407,1.672 1.558,1.244 1.651,0.653 1.652,0 V -0.001 -0.002 C 1.651,-0.654 1.558,-1.245 1.406,-1.674 1.247,-2.122 1.021,-2.399 0.764,-2.4 v 0 H 0.763 v 0 c -0.09,0 -0.176,0.034 -0.257,0.097 -0.061,0.048 -0.12,0.114 -0.176,0.196 -0.269,0.4 -0.453,1.194 -0.453,2.106"
             style="fill:#fff200;fill-opacity:1;fill-rule:nonzero;stroke:none"
             id="path426"
             inkscape:connector-curvature="0" /></g><g
           id="g428"
           transform="translate(349.597,562.6038)"><path
             d="m 0,0 c 0,0 0.05,-0.332 0,-0.581 -0.05,-0.25 -0.099,-0.333 -0.099,-0.333 0,0 0.365,0.183 0.546,0.232 0.183,0.05 0.465,0.101 0.564,0.134 0.1,0.033 -0.58,-0.283 -0.811,-0.416 -0.233,-0.133 -0.482,-0.283 -0.581,-0.432 -0.1,-0.15 -0.464,-0.632 -0.464,-0.798 0,-0.167 0.199,-0.35 0.166,-0.599 -0.033,-0.249 -0.116,-0.382 -0.166,-0.432 -0.05,-0.05 -0.067,0.033 -0.083,0.249 -0.017,0.217 -0.05,0.3 -0.05,0.3 0,0 -0.1,-0.083 -0.15,-0.2 -0.049,-0.116 -0.065,-0.233 -0.214,-0.416 -0.15,-0.183 -0.282,-0.282 -0.282,-0.282 0,0 0.049,0.781 0.215,0.981 0.166,0.199 0.265,0.366 0.265,0.366 0,0 0.183,0.448 0.166,0.698 -0.016,0.249 0.083,0.748 0.266,0.981 C -0.53,-0.316 -0.149,-0.066 0,0"
             style="fill:#fff30d;fill-opacity:1;fill-rule:evenodd;stroke:none"
             id="path430"
             inkscape:connector-curvature="0" /></g><g
           id="g432"
           transform="translate(349.597,562.6038)"><path
             d="m 0,0 c 0,0 0.05,-0.332 0,-0.581 -0.05,-0.25 -0.099,-0.333 -0.099,-0.333 0,0 0.365,0.183 0.546,0.232 0.183,0.05 0.465,0.101 0.564,0.134 0.1,0.033 -0.58,-0.283 -0.811,-0.416 -0.233,-0.133 -0.482,-0.283 -0.581,-0.432 -0.1,-0.15 -0.464,-0.632 -0.464,-0.798 0,-0.167 0.199,-0.35 0.166,-0.599 -0.033,-0.249 -0.116,-0.382 -0.166,-0.432 -0.05,-0.05 -0.067,0.033 -0.083,0.249 -0.017,0.217 -0.05,0.3 -0.05,0.3 0,0 -0.1,-0.083 -0.15,-0.2 -0.049,-0.116 -0.065,-0.233 -0.214,-0.416 -0.15,-0.183 -0.282,-0.282 -0.282,-0.282 0,0 0.049,0.781 0.215,0.981 0.166,0.199 0.265,0.366 0.265,0.366 0,0 0.183,0.448 0.166,0.698 -0.016,0.249 0.083,0.748 0.266,0.981 C -0.53,-0.316 -0.149,-0.066 0,0 Z"
             style="fill:none;stroke:#0c2950;stroke-width:0.077;stroke-linecap:butt;stroke-linejoin:miter;stroke-miterlimit:4;stroke-dasharray:none;stroke-opacity:1"
             id="path434"
             inkscape:connector-curvature="0" /></g><g
           id="g436"
           transform="translate(352.8809,555.6989)"><path
             d="M 0,0 C 0.099,0.016 0.215,0.033 0.215,0.033 L 0.099,0.199 c 0,0 0.382,-0.199 0.431,-0.216 0.051,-0.016 0.101,0.05 0.101,0.05 0,0 0.065,-0.05 0.148,-0.066 C 0.863,-0.05 0.945,0.066 1.028,0.166 1.111,0.266 1.21,0.365 1.045,0.399 0.879,0.432 0.796,0.482 0.663,0.532 0.53,0.582 0.497,0.648 0.497,0.648 l 0.199,0.034 c 0,0 -0.513,0.366 -0.646,0.581 -0.133,0.216 -0.448,0.583 -0.796,0.848 -0.348,0.266 -0.696,0.549 -0.994,0.615 -0.3,0.067 -0.482,0.116 -0.482,0.116 0,0 0.017,0.649 0.084,0.898 0.066,0.25 0.314,0.848 0.314,1.015 0,0.166 0.033,0.415 -0.198,0.648 -0.233,0.233 -0.432,0.316 -0.68,0.316 -0.249,0 -0.539,-0.172 -0.721,-0.255 C -3.604,5.381 -3.714,5.271 -3.913,5.171 -4.112,5.071 -4.195,5.044 -4.244,4.994 -4.294,4.944 -4.269,4.925 -4.269,4.925 l 0.072,-0.021 c 0,0 0.21,0.066 0.392,0.1 0.182,0.033 0.338,-0.091 0.554,-0.224 0.215,-0.133 0.3,-0.242 0.3,-0.491 0,-0.249 -0.232,-0.731 -0.381,-0.981 C -3.481,3.059 -3.73,2.809 -3.78,2.544 -3.829,2.277 -3.913,2.011 -3.879,1.729 -3.846,1.446 -3.664,1.03 -3.448,0.781 c 0,0 0.226,-0.374 0.396,-0.468 0.171,-0.093 0.574,-0.062 0.682,-0.062 0.109,0 0.171,-0.125 0.466,-0.28 0.34,-0.231 0.997,-0.416 1.086,-0.312 0.124,0.047 0.186,0.141 0.388,0.203 C -0.229,-0.076 0,0 0,0"
             style="fill:#fff200;fill-opacity:1;fill-rule:evenodd;stroke:none"
             id="path438"
             inkscape:connector-curvature="0" /></g><g
           id="g440"
           transform="translate(352.8809,555.6989)"><path
             d="M 0,0 C 0.099,0.016 0.215,0.033 0.215,0.033 L 0.099,0.199 c 0,0 0.382,-0.199 0.431,-0.216 0.051,-0.016 0.101,0.05 0.101,0.05 0,0 0.065,-0.05 0.148,-0.066 C 0.863,-0.05 0.945,0.066 1.028,0.166 1.111,0.266 1.21,0.365 1.045,0.399 0.879,0.432 0.796,0.482 0.663,0.532 0.53,0.582 0.497,0.648 0.497,0.648 l 0.199,0.034 c 0,0 -0.513,0.366 -0.646,0.581 -0.133,0.216 -0.448,0.583 -0.796,0.848 -0.348,0.266 -0.696,0.549 -0.994,0.615 -0.3,0.067 -0.482,0.116 -0.482,0.116 0,0 0.017,0.649 0.084,0.898 0.066,0.25 0.314,0.848 0.314,1.015 0,0.166 0.033,0.415 -0.198,0.648 -0.233,0.233 -0.432,0.316 -0.68,0.316 -0.249,0 -0.539,-0.172 -0.721,-0.255 C -3.604,5.381 -3.714,5.271 -3.913,5.171 -4.112,5.071 -4.195,5.044 -4.244,4.994 -4.294,4.944 -4.269,4.925 -4.269,4.925 l 0.072,-0.021 c 0,0 0.21,0.066 0.392,0.1 0.182,0.033 0.338,-0.091 0.554,-0.224 0.215,-0.133 0.3,-0.242 0.3,-0.491 0,-0.249 -0.232,-0.731 -0.381,-0.981 C -3.481,3.059 -3.73,2.809 -3.78,2.544 -3.829,2.277 -3.913,2.011 -3.879,1.729 -3.846,1.446 -3.664,1.03 -3.448,0.781 c 0,0 0.226,-0.374 0.396,-0.468 0.171,-0.093 0.574,-0.062 0.682,-0.062 0.109,0 0.171,-0.125 0.466,-0.28 0.34,-0.231 0.997,-0.416 1.086,-0.312 0.124,0.047 0.186,0.141 0.388,0.203 C -0.229,-0.076 0,0 0,0 Z"
             style="fill:none;stroke:#0c2950;stroke-width:0.077;stroke-linecap:butt;stroke-linejoin:miter;stroke-miterlimit:4;stroke-dasharray:none;stroke-opacity:1"
             id="path442"
             inkscape:connector-curvature="0" /></g><g
           id="g444"
           transform="translate(349.3522,561.1537)"><path
             d="M 0,0 C -0.201,-0.095 -0.257,-0.144 -0.476,-0.258 -0.696,-0.373 -0.833,-0.521 -0.893,-0.573 -0.965,-0.635 -0.97,-0.689 -0.97,-0.689 l 0.071,0.031 c 0,0 0.348,0.081 0.549,0.119 0.2,0.038 0.364,-0.011 0.602,-0.163 0,0 -0.189,0.328 -0.222,0.499 C -0.002,-0.033 0,0 0,0"
             style="fill:#630530;fill-opacity:1;fill-rule:evenodd;stroke:none"
             id="path446"
             inkscape:connector-curvature="0" /></g><g
           id="g448"
           transform="translate(350.1699,558.098)"><path
             d="m 0,0 c 0,-0.002 0.015,-0.592 0.194,-0.921 v 0 L 0.195,-0.922 C 0.219,-0.967 0.249,-1.013 0.284,-1.06 0.318,-1.108 0.357,-1.155 0.398,-1.2 0.61,-1.438 0.889,-1.647 1.058,-1.7 1.11,-1.716 1.152,-1.729 1.188,-1.738 l -0.041,0.048 0.091,0.085 c 0,0 0.157,-0.143 0.309,-0.171 L 1.575,-1.781 1.5,-1.669 1.499,-1.668 1.604,-1.601 1.605,-1.602 1.608,-1.607 1.62,-1.626 c 0.041,-0.06 0.151,-0.21 0.21,-0.174 0.11,0.069 0.134,0.119 0.134,0.119 L 2.07,-1.745 c 0,0 -0.037,-0.074 -0.175,-0.16 C 1.87,-1.921 1.845,-1.927 1.82,-1.927 L 1.84,-1.955 1.696,-1.929 1.525,-1.898 C 1.507,-1.895 1.488,-1.89 1.47,-1.884 L 1.483,-1.899 H 1.35 c 0,0 -0.071,0 -0.329,0.08 -0.188,0.059 -0.49,0.283 -0.715,0.536 -0.044,0.049 -0.086,0.1 -0.122,0.15 -0.037,0.05 -0.07,0.101 -0.098,0.152 H 0.085 v 0.001 c -0.192,0.356 -0.209,0.976 -0.209,0.978 z"
             style="fill:#0c2950;fill-opacity:1;fill-rule:nonzero;stroke:none"
             id="path450"
             inkscape:connector-curvature="0" /></g><g
           id="g452"
           transform="translate(349.8911,561.1304)"><path
             d="M 0,0 C 0,0 0.077,0.062 0.171,0.062 0.263,0.062 0.404,0 0.404,0 0.404,0 0.326,-0.078 0.232,-0.093 0.14,-0.109 0,0 0,0"
             style="fill:#0c2950;fill-opacity:1;fill-rule:evenodd;stroke:none"
             id="path454"
             inkscape:connector-curvature="0" /></g><g
           id="g456"
           transform="translate(349.8539,556.0362)"><path
             d="M 0,0 C 0,0 0.207,-0.177 0.281,-0.319 0.357,-0.461 0.498,-0.687 0.515,-0.746 0.532,-0.804 0.54,-0.83 0.49,-0.83 c -0.05,0.001 -0.225,0.017 -0.46,0.051 -0.233,0.033 -0.575,0.251 -0.642,0.309 -0.066,0.059 -0.284,0.185 -0.46,0.201 -0.175,0.017 -0.291,0.017 -0.291,0.017 0,0 0.434,-0.469 0.542,-0.561 0.109,-0.092 0.384,-0.335 0.626,-0.443 0.242,-0.109 0.493,-0.344 0.801,-0.386 0.309,-0.041 0.343,-0.066 0.46,0.059 0.116,0.126 0.234,0.318 0.234,0.318 0,0 0.042,-0.042 0.033,-0.251 C 1.325,-1.725 1.182,-2.068 1.149,-2.161 1.115,-2.253 0.899,-2.738 0.857,-2.839 0.816,-2.939 0.748,-3.006 0.748,-3.006 c 0,0 0.034,-0.059 0.159,-0.059 h 0.301 c 0.184,0 0.25,0.042 0.25,0.042 0,0 -0.033,0.151 0.051,0.394 0.083,0.243 0.526,0.803 0.617,0.862 0.092,0.058 0.342,0.259 0.342,0.293 0,0.033 -0.05,0.167 -0.075,0.301 -0.025,0.134 -0.092,0.461 -0.092,0.461 0,0 0.046,0.039 -0.229,0.055 -0.276,0.017 -0.346,0.061 -0.703,0.211 -0.576,0.396 -0.684,0.399 -0.684,0.399 0,0 -0.231,-0.013 -0.322,-0.005 C 0.271,-0.043 0,0 0,0"
             style="fill:#630530;fill-opacity:1;fill-rule:evenodd;stroke:none"
             id="path458"
             inkscape:connector-curvature="0" /></g><g
           id="g460"
           transform="translate(349.1362,555.3182)"><path
             d="m 0,0 c 0.128,-0.403 -0.254,-0.884 -0.855,-1.075 -0.599,-0.191 -1.188,-0.019 -1.316,0.383 -0.128,0.403 0.255,0.885 0.855,1.076 C -0.717,0.575 -0.127,0.403 0,0"
             style="fill:#fff30d;fill-opacity:1;fill-rule:evenodd;stroke:none"
             id="path462"
             inkscape:connector-curvature="0" /></g><g
           id="g464"
           transform="translate(349.1362,555.3182)"><path
             d="m 0,0 c 0.128,-0.403 -0.254,-0.884 -0.855,-1.075 -0.599,-0.191 -1.188,-0.019 -1.316,0.383 -0.128,0.403 0.255,0.885 0.855,1.076 C -0.717,0.575 -0.127,0.403 0,0 Z"
             style="fill:none;stroke:#0c2950;stroke-width:0.077;stroke-linecap:butt;stroke-linejoin:miter;stroke-miterlimit:4;stroke-dasharray:none;stroke-opacity:1"
             id="path466"
             inkscape:connector-curvature="0" /></g><g
           id="g468"
           transform="translate(344.8106,551.841)"><path
             d="M 0,0 C 0,0 -0.178,0.183 0.235,0.367 0.649,0.55 0.941,0.562 1.024,0.644 1.107,0.727 1.201,1.349 1.201,1.292 1.201,1.235 2.072,0.723 2.072,0.723 L 2.874,1.469 3.953,0.896 c 0,0 0.2,0.07 0.26,0.131 0.06,0.061 0.147,0.782 0.147,0.782 0,0 0.637,-0.768 0.72,-0.686 0.081,0.082 0.49,0.646 0.49,0.646 0,0 0.047,-0.552 0.089,-0.508 0.044,0.044 0.287,0.235 0.287,0.235 L 6.093,1.261 6.587,1.696 6.847,1.218 8.043,1.6 c 0,0 0.286,-0.469 0.563,-0.573 C 8.883,0.923 9.222,1.07 9.222,1.07 l 0.19,0.174 c 0,0 0.347,-0.585 0.564,-0.705 0.215,-0.12 0.467,-0.477 0.467,-0.477 z"
             style="fill:#630530;fill-opacity:1;fill-rule:nonzero;stroke:none"
             id="path470"
             inkscape:connector-curvature="0" /></g><g
           id="g472"
           transform="translate(356.2871,552.4514)"><path
             d="m 0,0 v 0.007 h -12.207 c -0.554,0 -1.004,-0.45 -1.004,-1.006 0,-0.556 0.45,-1.007 1.004,-1.007 V -2.013 H 0 c 0.554,0 1.004,0.451 1.004,1.007 C 1.004,-0.451 0.554,0 0,0"
             style="fill:#630530;fill-opacity:1;fill-rule:evenodd;stroke:none"
             id="path474"
             inkscape:connector-curvature="0" /></g><g
           id="g476"
           transform="translate(350.1563,550.7219)"><path
             d="m 0,0 v -0.25 c -0.513,-0.029 -0.789,0.584 -1.236,0.223 l 0.138,-0.168 c -0.653,-0.139 -0.929,0.501 -1.375,0.752 -0.103,0.334 -0.722,0.445 -0.722,0.863 0.31,0.335 0.928,0.25 1.341,0.195 C -1.03,1.225 -0.445,0.64 0,0"
             style="fill:#97d9f6;fill-opacity:1;fill-rule:evenodd;stroke:none"
             id="path478"
             inkscape:connector-curvature="0" /></g><g
           id="g480"
           transform="translate(354.6237,550.7778)"><path
             d="m 0,0 v -0.306 c -0.896,0.194 -1.181,0.64 -1.913,0.918 -0.611,-0.445 0.447,-0.529 0.447,-0.918 -0.691,-0.167 -0.773,0.361 -1.262,0.501 -0.121,0.417 -0.732,0.556 -1.017,0.919 -0.123,0.362 0.449,0.25 0.732,0.334 C -1.424,1.615 -1.099,0.473 0,0"
             style="fill:#97d9f6;fill-opacity:1;fill-rule:evenodd;stroke:none"
             id="path482"
             inkscape:connector-curvature="0" /></g><g
           id="g484"
           transform="translate(345.9156,551.279)"><path
             d="m 0,0 c 0.084,-0.278 0.847,-0.473 0.465,-0.752 -0.974,-0.084 -0.804,1.002 -1.694,0.557 -0.127,-0.251 0.212,-0.251 0.382,-0.362 v -0.139 c -0.509,-0.223 -0.636,0.25 -0.975,0.362 -0.127,0.445 -0.127,0.779 0.297,1.141 C -0.552,1.002 -0.594,0.195 0,0"
             style="fill:#97d9f6;fill-opacity:1;fill-rule:evenodd;stroke:none"
             id="path486"
             inkscape:connector-curvature="0" /></g><g
           id="g488"
           transform="translate(356.3057,551.7242)"><path
             d="M 0,0 V -0.25 C -0.279,-0.389 -0.446,-0.056 -0.557,0.167 -0.501,0.612 -0.084,0.195 0,0"
             style="fill:#97d9f6;fill-opacity:1;fill-rule:evenodd;stroke:none"
             id="path490"
             inkscape:connector-curvature="0" /></g><g
           id="g492"
           transform="translate(334.8109,525.7411)"><path
             d="M 0,0 0.29,-0.115 C 0.405,-0.161 0.491,-0.157 0.537,-0.042 0.573,0.049 0.51,0.111 0.398,0.156 L 0.107,0.271 Z m -0.265,-0.668 0.323,-0.128 c 0.116,-0.046 0.228,-0.053 0.283,0.085 0.042,0.105 0.003,0.188 -0.128,0.24 l -0.345,0.137 z m -0.01,1.585 0.98,-0.389 C 1.175,0.341 1.17,0.035 1.097,-0.148 1.026,-0.329 0.899,-0.392 0.738,-0.412 0.876,-0.531 0.975,-0.719 0.871,-0.983 0.729,-1.342 0.345,-1.404 0.029,-1.279 l -1.014,0.403 z"
             style="fill:#97d9f6;fill-opacity:1;fill-rule:nonzero;stroke:none"
             id="path494"
             inkscape:connector-curvature="0" /></g><g
           id="g496"
           transform="translate(337.4352,524.1229)"><path
             d="m 0,0 c -0.226,-0.485 -0.596,-0.596 -1.129,-0.347 -0.532,0.248 -0.687,0.603 -0.46,1.089 l 0.5,1.072 0.537,-0.25 -0.444,-0.953 C -1.08,0.432 -1.184,0.209 -0.923,0.087 c 0.254,-0.118 0.358,0.105 0.442,0.284 L -0.037,1.324 0.5,1.073 Z"
             style="fill:#97d9f6;fill-opacity:1;fill-rule:nonzero;stroke:none"
             id="path498"
             inkscape:connector-curvature="0" /></g><g
           id="g500"
           transform="translate(338.2948,524.0347)"><path
             d="m 0,0 0.268,-0.155 c 0.096,-0.055 0.236,-0.114 0.323,0.036 0.06,0.105 0.037,0.2 -0.159,0.313 L 0.192,0.332 Z M -0.092,1.026 0.885,0.462 C 1.177,0.294 1.336,-0.013 1.153,-0.329 1.054,-0.502 0.869,-0.639 0.663,-0.604 0.771,-0.738 0.768,-0.942 0.667,-1.162 0.627,-1.248 0.514,-1.448 0.517,-1.552 l -0.513,0.296 c 0.022,0.099 0.063,0.191 0.106,0.282 0.078,0.167 0.159,0.341 -0.044,0.458 l -0.272,0.158 -0.337,-0.583 -0.513,0.296 z"
             style="fill:#97d9f6;fill-opacity:1;fill-rule:nonzero;stroke:none"
             id="path502"
             inkscape:connector-curvature="0" /></g><g
           id="g504"
           transform="translate(340.0639,523.965)"><path
             d="M 0,0 0.471,-0.383 0.254,-1.538 0.258,-1.542 0.91,-0.74 1.344,-1.094 0.127,-2.592 l -0.447,0.364 0.207,1.191 -0.004,0.003 -0.665,-0.818 -0.435,0.354 z"
             style="fill:#97d9f6;fill-opacity:1;fill-rule:nonzero;stroke:none"
             id="path506"
             inkscape:connector-curvature="0" /></g><g
           id="g508"
           transform="translate(341.5581,522.7338)"><path
             d="M 0,0 0.469,-0.363 -0.409,-1.498 0.265,-2.02 -0.037,-2.411 -1.181,-1.526 Z"
             style="fill:#97d9f6;fill-opacity:1;fill-rule:nonzero;stroke:none"
             id="path510"
             inkscape:connector-curvature="0" /></g><g
           id="g512"
           transform="translate(342.7592,521.8022)"><path
             d="M 0,0 1.318,-0.892 1.041,-1.302 0.214,-0.742 0.079,-0.941 0.831,-1.45 0.573,-1.831 -0.178,-1.322 -0.313,-1.521 0.539,-2.098 0.262,-2.507 -1.081,-1.599 Z"
             style="fill:#97d9f6;fill-opacity:1;fill-rule:nonzero;stroke:none"
             id="path514"
             inkscape:connector-curvature="0" /></g><g
           id="g516"
           transform="translate(343.9653,519.5714)"><path
             d="M 0,0 -0.001,1.394 0.572,1.077 0.508,0.299 1.145,0.759 1.713,0.444 0.518,-0.287 0.173,-0.909 -0.345,-0.622 Z"
             style="fill:#97d9f6;fill-opacity:1;fill-rule:nonzero;stroke:none"
             id="path518"
             inkscape:connector-curvature="0" /></g><g
           id="g520"
           transform="translate(346.224,519.7881)"><path
             d="M 0,0 1.402,-0.5 1.235,-0.966 0.392,-0.665 0.311,-0.892 1.035,-1.15 0.881,-1.583 0.157,-1.325 -0.09,-2.018 -0.649,-1.819 Z"
             style="fill:#97d9f6;fill-opacity:1;fill-rule:nonzero;stroke:none"
             id="path522"
             inkscape:connector-curvature="0" /></g><g
           id="g524"
           transform="translate(348.2108,517.6381)"><path
             d="M 0,0 C 0.148,-0.029 0.395,0.024 0.478,0.446 0.561,0.867 0.353,1.011 0.205,1.04 0.057,1.069 -0.19,1.016 -0.273,0.594 -0.356,0.172 -0.148,0.029 0,0 M 0.298,1.512 C 0.872,1.398 1.174,0.909 1.06,0.331 0.946,-0.248 0.481,-0.586 -0.093,-0.472 c -0.574,0.113 -0.876,0.603 -0.762,1.181 0.114,0.578 0.579,0.916 1.153,0.803"
             style="fill:#97d9f6;fill-opacity:1;fill-rule:nonzero;stroke:none"
             id="path526"
             inkscape:connector-curvature="0" /></g><g
           id="g528"
           transform="translate(350.337,517.4102)"><path
             d="M 0,0 C 0.151,-0.003 0.385,0.093 0.393,0.523 0.401,0.952 0.171,1.057 0.02,1.06 -0.131,1.062 -0.365,0.967 -0.373,0.537 -0.381,0.107 -0.151,0.003 0,0 M 0.029,1.541 C 0.614,1.53 0.997,1.101 0.986,0.511 0.975,-0.078 0.576,-0.492 -0.009,-0.481 c -0.585,0.011 -0.968,0.44 -0.957,1.029 0.011,0.59 0.41,1.004 0.995,0.993"
             style="fill:#97d9f6;fill-opacity:1;fill-rule:nonzero;stroke:none"
             id="path530"
             inkscape:connector-curvature="0" /></g><g
           id="g532"
           transform="translate(351.8549,518.4894)"><path
             d="M 0,0 -0.532,-0.088 -0.613,0.399 1.036,0.673 1.117,0.185 0.585,0.097 0.821,-1.318 0.236,-1.415 Z"
             style="fill:#97d9f6;fill-opacity:1;fill-rule:nonzero;stroke:none"
             id="path534"
             inkscape:connector-curvature="0" /></g><g
           id="g536"
           transform="translate(354.0028,517.9983)"><path
             d="M 0,0 0.328,0.117 C 0.444,0.159 0.534,0.229 0.483,0.368 0.445,0.475 0.361,0.511 0.229,0.464 L -0.121,0.338 Z M -0.242,0.676 0.052,0.782 C 0.168,0.824 0.23,0.883 0.188,1 0.155,1.092 0.067,1.097 -0.047,1.057 L -0.341,0.951 Z m -0.812,0.508 0.991,0.355 C 0.414,1.71 0.612,1.476 0.678,1.291 0.744,1.108 0.692,0.977 0.583,0.855 0.766,0.857 0.964,0.782 1.06,0.515 1.191,0.151 0.944,-0.15 0.624,-0.264 l -1.026,-0.368 z"
             style="fill:#97d9f6;fill-opacity:1;fill-rule:nonzero;stroke:none"
             id="path538"
             inkscape:connector-curvature="0" /></g><g
           id="g540"
           transform="translate(355.9794,519.1189)"><path
             d="M 0,0 -0.43,0.446 -0.435,0.443 -0.322,-0.17 Z m -0.991,0.88 0.513,0.27 1.519,-1.38 -0.543,-0.287 -0.2,0.206 -0.541,-0.285 0.052,-0.284 -0.527,-0.277 z"
             style="fill:#97d9f6;fill-opacity:1;fill-rule:nonzero;stroke:none"
             id="path542"
             inkscape:connector-curvature="0" /></g><g
           id="g544"
           transform="translate(356.0465,520.5752)"><path
             d="m 0,0 0.495,0.328 0.793,-1.197 0.71,0.47 0.273,-0.412 -1.204,-0.799 z"
             style="fill:#97d9f6;fill-opacity:1;fill-rule:nonzero;stroke:none"
             id="path546"
             inkscape:connector-curvature="0" /></g><g
           id="g548"
           transform="translate(357.3082,521.4189)"><path
             d="M 0,0 0.474,0.356 1.335,-0.791 2.015,-0.28 2.313,-0.675 1.158,-1.543 Z"
             style="fill:#97d9f6;fill-opacity:1;fill-rule:nonzero;stroke:none"
             id="path550"
             inkscape:connector-curvature="0" /></g><g
           id="g552"
           transform="translate(360.5214,523.0043)"><path
             d="m 0,0 c -0.052,0.048 -0.227,0.182 -0.419,0.029 -0.217,-0.172 -0.119,-0.439 0.042,-0.642 0.162,-0.203 0.399,-0.359 0.617,-0.187 0.156,0.125 0.13,0.283 0.045,0.447 L 0.74,0.009 c 0.242,-0.304 0.253,-0.824 -0.188,-1.175 -0.488,-0.387 -1.038,-0.262 -1.393,0.184 -0.378,0.475 -0.329,1.029 0.135,1.398 0.416,0.326 0.817,0.29 1.158,-0.057 z"
             style="fill:#97d9f6;fill-opacity:1;fill-rule:nonzero;stroke:none"
             id="path554"
             inkscape:connector-curvature="0" /></g><g
           id="g556"
           transform="translate(360.6457,524.0286)"><path
             d="m 0,0 0.471,0.359 0.87,-1.141 0.677,0.517 0.299,-0.394 -1.148,-0.876 z"
             style="fill:#97d9f6;fill-opacity:1;fill-rule:nonzero;stroke:none"
             id="path558"
             inkscape:connector-curvature="0" /></g><g
           id="g560"
           transform="translate(364.1256,524.9665)"><path
             d="m 0,0 c 0.274,-0.46 0.158,-0.828 -0.346,-1.129 -0.504,-0.301 -0.886,-0.23 -1.16,0.23 l -0.607,1.017 0.509,0.303 0.539,-0.902 c 0.101,-0.17 0.227,-0.381 0.475,-0.233 0.24,0.143 0.114,0.355 0.013,0.524 l -0.539,0.903 0.509,0.304 z"
             style="fill:#97d9f6;fill-opacity:1;fill-rule:nonzero;stroke:none"
             id="path562"
             inkscape:connector-curvature="0" /></g><g
           id="g564"
           transform="translate(364.9898,524.9858)"><path
             d="M 0,0 0.327,0.118 C 0.444,0.16 0.533,0.229 0.483,0.369 0.445,0.476 0.36,0.512 0.228,0.464 L -0.121,0.338 Z M -0.243,0.677 0.051,0.782 C 0.168,0.824 0.23,0.884 0.188,1.001 0.155,1.092 0.067,1.098 -0.048,1.057 L -0.341,0.951 Z M -1.055,1.183 -0.063,1.54 C 0.414,1.711 0.612,1.478 0.678,1.292 0.744,1.109 0.691,0.978 0.583,0.856 0.766,0.859 0.964,0.784 1.06,0.517 1.19,0.153 0.944,-0.148 0.624,-0.264 l -1.027,-0.369 z"
             style="fill:#97d9f6;fill-opacity:1;fill-rule:nonzero;stroke:none"
             id="path566"
             inkscape:connector-curvature="0" /></g><g
           id="g568"
           transform="translate(338.3184,550.0697)"><path
             d="m 0,0 c -0.003,-0.615 -0.11,-15.095 0.001,-16.861 0.226,-3.583 2.341,-6.712 6.122,-9.05 2.824,-1.745 5.538,-2.431 5.652,-2.459 l 0.091,-0.023 0.089,0.022 c 0.116,0.029 2.852,0.706 5.687,2.448 3.797,2.334 5.902,5.468 6.09,9.065 0.144,2.773 0.196,16.669 0.196,16.809 l 10e-4,0.38 -23.925,0.047 z m 6.504,-25.253 c -3.601,2.232 -5.534,5.071 -5.745,8.439 -0.037,0.58 -0.05,2.627 -0.05,5.102 0,4.283 -0.003,9.827 0.008,11.308 l 22.353,-0.003 0.004,-16.451 c -0.176,-3.377 -2.197,-6.179 -5.812,-8.406 -2.465,-1.52 -4.916,-2.217 -5.394,-2.345 -0.477,0.129 -2.908,0.833 -5.364,2.356"
             style="fill:#fab217;fill-opacity:1;fill-rule:evenodd;stroke:none"
             id="path570"
             inkscape:connector-curvature="0" /></g></g></g><g
       id="g572"
       transform="matrix(35.442314,0,0,35.442314,-10867.268,-17487.573)"
       inkscape:export-filename="G:\Users\suitedoalex\sites\burnley-logo-4.png"
       inkscape:export-xdpi="15.754242"
       inkscape:export-ydpi="15.754242"><g
         id="g574"><g
           id="g580"><g
             id="g582"><path
               d="m 324.167,536.008 c 0,-6.673 2.702,-13.106 7.814,-18.603 v 0 c 4.711,-5.066 11.119,-8.896 18.044,-10.787 v 0 l 0.158,-0.043 0.163,0.023 c 1.891,0.27 7.582,2.203 13.101,6.448 v 0 c 4.932,3.793 11.067,10.542 12.294,21.155 v 0 l 0.002,8.294 c -0.52,-0.155 -1.044,-0.305 -1.576,-0.45 v 0 -7.708 c -2.175,-18.579 -20.185,-25.496 -23.89,-26.149 v 0 c -12.217,3.4 -24.53,14.014 -24.53,27.82 v 0 6.091 c -0.534,0.147 -1.059,0.3 -1.58,0.457 v 0 z"
               style="fill:url(#linearGradient588);stroke:none"
               id="path590"
               inkscape:connector-curvature="0" /></g></g></g></g><g
       id="g592"
       transform="matrix(35.442314,0,0,35.442314,-10867.268,-17487.573)"
       inkscape:export-filename="G:\Users\suitedoalex\sites\burnley-logo-4.png"
       inkscape:export-xdpi="15.754242"
       inkscape:export-ydpi="15.754242"><g
         id="g594"><g
           id="g600"><g
             id="g602"><path
               d="m 324.167,566.92 v -24.364 c 0.521,-0.157 1.046,-0.31 1.58,-0.457 v 0 23.24 h 48.42 v -23.294 c 0.532,0.145 1.056,0.295 1.576,0.45 v 0 l 0.003,24.425 z"
               style="fill:url(#linearGradient608);stroke:none"
               id="path610"
               inkscape:connector-curvature="0" /></g></g></g></g></g></svg>