<?xml version="1.0" encoding="UTF-8" standalone="no"?>
<svg
   xmlns:dc="http://purl.org/dc/elements/1.1/"
   xmlns:cc="http://creativecommons.org/ns#"
   xmlns:rdf="http://www.w3.org/1999/02/22-rdf-syntax-ns#"
   xmlns:svg="http://www.w3.org/2000/svg"
   xmlns="http://www.w3.org/2000/svg"
   xmlns:sodipodi="http://sodipodi.sourceforge.net/DTD/sodipodi-0.dtd"
   xmlns:inkscape="http://www.inkscape.org/namespaces/inkscape"
   width="63.16"
   height="63.16"
   viewBox="0 0 63.160001 63.160001"
   role="img"
   version="1.1"
   id="svg192"
   sodipodi:docname="leicester-city-logo.svg"
   inkscape:version="0.92.2 (5c3e80d, 2017-08-06)">
  <metadata
     id="metadata196">
    <rdf:RDF>
      <cc:Work
         rdf:about="">
        <dc:format>image/svg+xml</dc:format>
        <dc:type
           rdf:resource="http://purl.org/dc/dcmitype/StillImage" />
        <dc:title>Leicester City Crest</dc:title>
      </cc:Work>
    </rdf:RDF>
  </metadata>
  <sodipodi:namedview
     pagecolor="#ffffff"
     bordercolor="#666666"
     borderopacity="1"
     objecttolerance="10"
     gridtolerance="10"
     guidetolerance="10"
     inkscape:pageopacity="0"
     inkscape:pageshadow="2"
     inkscape:window-width="1600"
     inkscape:window-height="837"
     id="namedview194"
     showgrid="false"
     fit-margin-top="0"
     fit-margin-left="0"
     fit-margin-right="0"
     fit-margin-bottom="0"
     inkscape:zoom="4.9341629"
     inkscape:cx="19.015161"
     inkscape:cy="26.869991"
     inkscape:window-x="-8"
     inkscape:window-y="-8"
     inkscape:window-maximized="1"
     inkscape:current-layer="svg192" />
  <defs
     id="defs4">
    <style
       id="style2">.cls-1{fill:#fff;}.cls-2{fill:#20419a;}.cls-3{fill:#f7a800;}.cls-4{fill:#d49f0b;}</style>
  </defs>
  <title
     id="title6">Leicester City Crest</title>
  <desc
     id="desc8">Leicester City Crest that includes the king power sponsor</desc>
  <path
     class="cls-1"
     d="M 31.58,63.16 A 31.58,31.58 0 1 0 0,31.58 v 0 a 31.58,31.58 0 0 0 31.58,31.58"
     id="path18"
     inkscape:connector-curvature="0"
     style="fill:#ffffff"
     inkscape:export-filename="G:\Users\suitedoalex\sites\leicester-city-logo-7.png"
     inkscape:export-xdpi="75.997467"
     inkscape:export-ydpi="75.997467" />
  <path
     class="cls-2"
     d="M 31.58,62.03 A 30.45,30.45 0 1 0 1.13,31.58 v 0 a 30.45,30.45 0 0 0 30.45,30.45"
     id="path20"
     inkscape:connector-curvature="0"
     style="fill:#20419a"
     inkscape:export-filename="G:\Users\suitedoalex\sites\leicester-city-logo-7.png"
     inkscape:export-xdpi="75.997467"
     inkscape:export-ydpi="75.997467" />
  <path
     class="cls-2"
     d="M 31.58,62.43 Z"
     id="path22"
     inkscape:connector-curvature="0"
     style="fill:#20419a"
     inkscape:export-filename="G:\Users\suitedoalex\sites\leicester-city-logo-7.png"
     inkscape:export-xdpi="75.997467"
     inkscape:export-ydpi="75.997467" />
  <path
     class="cls-1"
     d="M 31.58,60.07 A 28.49,28.49 0 1 0 3.09,31.58 v 0 a 28.49,28.49 0 0 0 28.49,28.49"
     id="path24"
     inkscape:connector-curvature="0"
     style="fill:#ffffff"
     inkscape:export-filename="G:\Users\suitedoalex\sites\leicester-city-logo-7.png"
     inkscape:export-xdpi="75.997467"
     inkscape:export-ydpi="75.997467" />
  <path
     class="cls-2"
     d="M 31.58,59.41 Z M 3.76,31.58 A 27.82,27.82 0 0 1 31.58,3.76 v 0 a 27.82,27.82 0 0 1 27.819997,27.82 v 0 A 27.82,27.82 0 0 1 31.59,59.41 v 0 -0.33 a 27.4,27.4 0 0 0 19.409997,-8.06 v 0 a 27.4,27.4 0 0 0 8,-19.44 v 0 a 27.4,27.4 0 0 0 -8,-19.43 v 0 A 27.4,27.4 0 0 0 31.56,4.1 v 0 a 27.4,27.4 0 0 0 -19.44,8 v 0 a 27.4,27.4 0 0 0 -8,19.43 v 0 a 27.4,27.4 0 0 0 8.05,19.44 v 0 a 27.4,27.4 0 0 0 19.44,8.05 v 0 0.33 A 27.82,27.82 0 0 1 3.76,31.58 Z"
     id="path26"
     inkscape:connector-curvature="0"
     style="fill:#20419a"
     inkscape:export-filename="G:\Users\suitedoalex\sites\leicester-city-logo-7.png"
     inkscape:export-xdpi="75.997467"
     inkscape:export-ydpi="75.997467" />
  <path
     class="cls-1"
     d="M 31.58,51.34 A 19.76,19.76 0 1 0 11.82,31.58 v 0 a 19.76,19.76 0 0 0 19.76,19.76"
     id="path28"
     inkscape:connector-curvature="0"
     style="fill:#ffffff"
     inkscape:export-filename="G:\Users\suitedoalex\sites\leicester-city-logo-7.png"
     inkscape:export-xdpi="75.997467"
     inkscape:export-ydpi="75.997467" />
  <path
     class="cls-2"
     d="m 31.06,13.28 c -0.41,2.24 -3.1,2.23 -4.59,3.42 a 4.27,4.27 0 0 0 -1.52,2.46 C 23.54,18.44 22.17,17.38 20.7,16.8 a 16.92,16.92 0 0 1 10.36,-3.53"
     id="path30"
     inkscape:connector-curvature="0"
     style="fill:#20419a"
     inkscape:export-filename="G:\Users\suitedoalex\sites\leicester-city-logo-7.png"
     inkscape:export-xdpi="75.997467"
     inkscape:export-ydpi="75.997467" />
  <path
     class="cls-2"
     d="M 42.109997,16.54 38.55,18.88 c -0.41,-2.54 -3.23,-3.29 -5.17,-4.09 -0.39,-0.42 -1,-0.93 -0.75,-1.51 a 17.73,17.73 0 0 1 9.479997,3.26"
     id="path32"
     inkscape:connector-curvature="0"
     style="fill:#20419a"
     inkscape:export-filename="G:\Users\suitedoalex\sites\leicester-city-logo-7.png"
     inkscape:export-xdpi="75.997467"
     inkscape:export-ydpi="75.997467" />
  <path
     class="cls-2"
     d="m 32.86,15.37 c 1.82,1 4.7,1.33 5.09,3.93 -0.08,0.28 -0.41,0.39 -0.58,0.52 -0.16,-3.43 -4.2,-2.77 -5.5,-5.37 -1.35,2.63 -5.7,2.13 -5.64,5.75 -0.31,-0.14 -0.86,-0.47 -0.55,-1 0.75,-2.91 4.2,-2.71 5.86,-4.7 l 0.25,-1 a 3.27,3.27 0 0 0 1.08,1.91"
     id="path34"
     inkscape:connector-curvature="0"
     style="fill:#20419a"
     inkscape:export-filename="G:\Users\suitedoalex\sites\leicester-city-logo-7.png"
     inkscape:export-xdpi="75.997467"
     inkscape:export-ydpi="75.997467" />
  <path
     class="cls-2"
     d="m 31.92,16.51 c 0,0.08 0,0.22 0,0.28 0,0.06 -0.14,-0.11 -0.22,-0.14 0,-0.19 0.22,-0.41 0.28,-0.14"
     id="path36"
     inkscape:connector-curvature="0"
     style="fill:#20419a"
     inkscape:export-filename="G:\Users\suitedoalex\sites\leicester-city-logo-7.png"
     inkscape:export-xdpi="75.997467"
     inkscape:export-ydpi="75.997467" />
  <path
     class="cls-2"
     d="m 32.63,17.17 c 0.06,0.11 -0.06,0.19 -0.11,0.28 h -0.08 v -0.41 c 0.11,0 0.14,0.08 0.19,0.14"
     id="path38"
     inkscape:connector-curvature="0"
     style="fill:#20419a"
     inkscape:export-filename="G:\Users\suitedoalex\sites\leicester-city-logo-7.png"
     inkscape:export-xdpi="75.997467"
     inkscape:export-ydpi="75.997467" />
  <path
     class="cls-2"
     d="m 31.25,17.17 c 0,0.09 0.06,0.22 0,0.28 h -0.14 v -0.33 c 0.06,0 0.17,0 0.19,0"
     id="path40"
     inkscape:connector-curvature="0"
     style="fill:#20419a"
     inkscape:export-filename="G:\Users\suitedoalex\sites\leicester-city-logo-7.png"
     inkscape:export-xdpi="75.997467"
     inkscape:export-ydpi="75.997467" />
  <path
     class="cls-2"
     d="m 18.78,21.64 c -1.74,1 -2.23,3.75 -4.44,3.53 a 17.15,17.15 0 0 1 4.89,-7.11 6,6 0 0 0 -0.45,3.58"
     id="path42"
     inkscape:connector-curvature="0"
     style="fill:#20419a"
     inkscape:export-filename="G:\Users\suitedoalex\sites\leicester-city-logo-7.png"
     inkscape:export-xdpi="75.997467"
     inkscape:export-ydpi="75.997467" />
  <path
     class="cls-2"
     d="m 32.11,20.16 h -0.8 l 0.55,-2 a 6.65,6.65 0 0 0 0.25,2"
     id="path44"
     inkscape:connector-curvature="0"
     style="fill:#20419a"
     inkscape:export-filename="G:\Users\suitedoalex\sites\leicester-city-logo-7.png"
     inkscape:export-xdpi="75.997467"
     inkscape:export-ydpi="75.997467" />
  <path
     class="cls-2"
     d="m 48.569997,24.75 c -1.91,-0.11 -2.57,-2.46 -4.24,-3.32 a 6.82,6.82 0 0 0 0.26,-2.79 15.67,15.67 0 0 1 4,6.11"
     id="path46"
     inkscape:connector-curvature="0"
     style="fill:#20419a"
     inkscape:export-filename="G:\Users\suitedoalex\sites\leicester-city-logo-7.png"
     inkscape:export-xdpi="75.997467"
     inkscape:export-ydpi="75.997467" />
  <path
     class="cls-2"
     d="m 48.839997,25.33 0.06,0.08 c -2.66,1.8 0.11,5.84 -2.77,7.5 a 4.73,4.73 0 0 1 -2.88,0.53 c 0.17,-0.64 1.19,-0.39 1.74,-0.72 3.26,-1 1.58,-5 3.24,-7 -1.61,-0.44 -2.88,-1.85 -4.18,-2.9 l 0.08,-0.47 c 1.52,1.08 2.66,3.24 4.7,3"
     id="path48"
     inkscape:connector-curvature="0"
     style="fill:#20419a"
     inkscape:export-filename="G:\Users\suitedoalex\sites\leicester-city-logo-7.png"
     inkscape:export-xdpi="75.997467"
     inkscape:export-ydpi="75.997467" />
  <path
     class="cls-2"
     d="m 19.3,22.64 c -1.3,1.41 -2.52,3 -4.3,3.32 0.19,0.53 0.66,0.94 0.86,1.47 0.58,2.24 0.64,5.34 3.51,6 0.42,0.17 1,-0.08 1.27,0.33 a 4,4 0 0 1 -3.71,-1 c -2,-1.94 -0.06,-5.64 -2.93,-7 2.41,0.53 3.35,-2.35 5,-3.4 z"
     id="path50"
     inkscape:connector-curvature="0"
     style="fill:#20419a"
     inkscape:export-filename="G:\Users\suitedoalex\sites\leicester-city-logo-7.png"
     inkscape:export-xdpi="75.997467"
     inkscape:export-ydpi="75.997467" />
  <path
     class="cls-2"
     d="m 44.859997,25.47 c 0,0.08 0,0.22 -0.06,0.28 h -0.08 v -0.41 a 0.11,0.11 0 0 1 0.14,0.14"
     id="path52"
     inkscape:connector-curvature="0"
     style="fill:#20419a"
     inkscape:export-filename="G:\Users\suitedoalex\sites\leicester-city-logo-7.png"
     inkscape:export-xdpi="75.997467"
     inkscape:export-ydpi="75.997467" />
  <path
     class="cls-2"
     d="m 19,25.74 c 0,0.06 0,0.08 -0.06,0.11 -0.06,0.03 -0.19,0 -0.27,-0.11 a 0.17,0.17 0 1 1 0.33,0"
     id="path54"
     inkscape:connector-curvature="0"
     style="fill:#20419a"
     inkscape:export-filename="G:\Users\suitedoalex\sites\leicester-city-logo-7.png"
     inkscape:export-xdpi="75.997467"
     inkscape:export-ydpi="75.997467" />
  <path
     class="cls-2"
     d="m 44.249997,26.32 c -0.06,0 -0.08,0.17 -0.19,0.14 a 0.21,0.21 0 0 1 0,-0.39 c 0.17,0 0.14,0.16 0.19,0.25"
     id="path56"
     inkscape:connector-curvature="0"
     style="fill:#20419a"
     inkscape:export-filename="G:\Users\suitedoalex\sites\leicester-city-logo-7.png"
     inkscape:export-xdpi="75.997467"
     inkscape:export-ydpi="75.997467" />
  <path
     class="cls-2"
     d="m 45.579997,26.08 c 0,0.11 0.06,0.25 -0.06,0.33 -0.12,0.08 -0.14,-0.11 -0.19,-0.14 -0.05,-0.03 0.06,-0.25 0.25,-0.19"
     id="path58"
     inkscape:connector-curvature="0"
     style="fill:#20419a"
     inkscape:export-filename="G:\Users\suitedoalex\sites\leicester-city-logo-7.png"
     inkscape:export-xdpi="75.997467"
     inkscape:export-ydpi="75.997467" />
  <path
     class="cls-2"
     d="m 19.69,26.41 c 0,0 -0.08,0.14 -0.19,0.11 l -0.14,-0.11 0.22,-0.28 a 0.51,0.51 0 0 1 0.11,0.28"
     id="path60"
     inkscape:connector-curvature="0"
     style="fill:#20419a"
     inkscape:export-filename="G:\Users\suitedoalex\sites\leicester-city-logo-7.png"
     inkscape:export-xdpi="75.997467"
     inkscape:export-ydpi="75.997467" />
  <path
     class="cls-2"
     d="m 44.589997,44.54 -1.26,1.17 c -0.36,-2.71 2.79,-4.42 2,-7.36 -0.39,-1.55 -2.08,-2.79 -3.46,-3.32 0,-1.91 2.07,-0.53 3.07,-0.94 a 4,4 0 0 0 3,-2.18 c 1,-1.8 -0.43,-4.21 1.12,-5.81 a 18.22,18.22 0 0 1 -4.47,18.44"
     id="path62"
     inkscape:connector-curvature="0"
     style="fill:#20419a"
     inkscape:export-filename="G:\Users\suitedoalex\sites\leicester-city-logo-7.png"
     inkscape:export-xdpi="75.997467"
     inkscape:export-ydpi="75.997467" />
  <path
     class="cls-2"
     d="m 18.31,26.41 c 0,0.11 -0.06,0.17 -0.14,0.25 v 0 -0.39 c 0.08,0 0.14,0.08 0.19,0.14"
     id="path64"
     inkscape:connector-curvature="0"
     style="fill:#20419a"
     inkscape:export-filename="G:\Users\suitedoalex\sites\leicester-city-logo-7.png"
     inkscape:export-xdpi="75.997467"
     inkscape:export-ydpi="75.997467" />
  <path
     class="cls-2"
     d="m 15.79,32.43 a 4.52,4.52 0 0 0 3.13,2.13 17,17 0 0 0 2.43,-0.14 l 0.22,0.52 a 5.39,5.39 0 0 0 -3.4,3.26 c -0.69,2.88 1.91,4.73 2.41,7.3 l -0.21,0.65 A 18.39,18.39 0 0 1 13.56,27.64 l 0.37,-1.19 c 2.38,1 0.68,4.18 1.87,6"
     id="path66"
     inkscape:connector-curvature="0"
     style="fill:#20419a"
     inkscape:export-filename="G:\Users\suitedoalex\sites\leicester-city-logo-7.png"
     inkscape:export-xdpi="75.997467"
     inkscape:export-ydpi="75.997467" />
  <path
     class="cls-2"
     d="m 45.329997,29.64 c -0.39,-0.14 -0.47,0.33 -0.61,0.53 -0.08,-0.17 -0.08,-0.39 -0.25,-0.53 l -0.41,0.09 0.8,-2.55 a 10,10 0 0 0 0.47,2.46"
     id="path68"
     inkscape:connector-curvature="0"
     style="fill:#20419a"
     inkscape:export-filename="G:\Users\suitedoalex\sites\leicester-city-logo-7.png"
     inkscape:export-xdpi="75.997467"
     inkscape:export-ydpi="75.997467" />
  <path
     class="cls-2"
     d="M 19.58,29.78 C 19.22,29.7 19.08,30 18.97,30.25 v 0.14 c -0.09,-0.28 -0.31,-0.86 -0.72,-0.55 a 25,25 0 0 0 0.75,-2.52 5.65,5.65 0 0 0 0.61,2.46"
     id="path70"
     inkscape:connector-curvature="0"
     style="fill:#20419a"
     inkscape:export-filename="G:\Users\suitedoalex\sites\leicester-city-logo-7.png"
     inkscape:export-xdpi="75.997467"
     inkscape:export-ydpi="75.997467" />
  <path
     class="cls-2"
     d="m 21.9,36.03 v 0.25 c -1.1,0.53 -2.41,1.49 -2.41,2.85 -0.17,2.51 2.24,3.92 2,6.44 0.39,0.31 0.75,-0.25 1.19,-0.19 1.45,-0.11 5.62,0.33 6.58,-0.86 a 0.83,0.83 0 0 1 0.61,0.19 2.76,2.76 0 0 1 -2.21,1.47 c -2.27,0.22 -4.87,-1.69 -6.69,0.39 1.38,-3.24 -3.37,-5.34 -1.8,-8.77 a 4.26,4.26 0 0 1 2.59,-2.16 z"
     id="path72"
     inkscape:connector-curvature="0"
     style="fill:#20419a"
     inkscape:export-filename="G:\Users\suitedoalex\sites\leicester-city-logo-7.png"
     inkscape:export-xdpi="75.997467"
     inkscape:export-ydpi="75.997467" />
  <path
     class="cls-2"
     d="m 44.659997,38.74 c 0.33,2.85 -3,4.4 -2.07,7.25 C 39.8,44.39 36.15,48.23 33.77,44.91 c 0,-0.22 0.25,-0.39 0.41,-0.47 0.5,0.14 0.66,0.61 1.11,0.88 2.16,1.55 4.45,-0.47 6.769997,0.11 0.14,-0.28 0,-0.83 0.14,-1.19 0.89,-2 3.07,-4.59 1,-6.78 a 5.65,5.65 0 0 0 -1.85,-1 c -0.19,-0.3 0.11,-0.52 0.19,-0.8 1.27,0.47 3,1.6 3.13,3.12"
     id="path74"
     inkscape:connector-curvature="0"
     style="fill:#20419a"
     inkscape:export-filename="G:\Users\suitedoalex\sites\leicester-city-logo-7.png"
     inkscape:export-xdpi="75.997467"
     inkscape:export-ydpi="75.997467" />
  <path
     class="cls-2"
     d="M 39.41,39.27 C 39.24,39.35 39.24,39.16 39.16,39.08 39.24,39 39.24,38.8 39.41,38.89 Z"
     id="path76"
     inkscape:connector-curvature="0"
     style="fill:#20419a"
     inkscape:export-filename="G:\Users\suitedoalex\sites\leicester-city-logo-7.png"
     inkscape:export-xdpi="75.997467"
     inkscape:export-ydpi="75.997467" />
  <path
     class="cls-2"
     d="m 24.61,39.07 c 0,0.08 0,0.22 -0.06,0.28 -0.06,0.06 -0.14,-0.11 -0.22,-0.14 -0.14,-0.25 0.28,-0.39 0.28,-0.14"
     id="path78"
     inkscape:connector-curvature="0"
     style="fill:#20419a"
     inkscape:export-filename="G:\Users\suitedoalex\sites\leicester-city-logo-7.png"
     inkscape:export-xdpi="75.997467"
     inkscape:export-ydpi="75.997467" />
  <path
     class="cls-2"
     d="m 40.159997,39.87 c -0.08,0 -0.109997,0 -0.139997,0.06 -0.03,0.06 -0.17,-0.39 0.06,-0.39 0.229997,0 0.06,0.22 0.08,0.33"
     id="path80"
     inkscape:connector-curvature="0"
     style="fill:#20419a"
     inkscape:export-filename="G:\Users\suitedoalex\sites\leicester-city-logo-7.png"
     inkscape:export-xdpi="75.997467"
     inkscape:export-ydpi="75.997467" />
  <path
     class="cls-2"
     d="m 25.33,39.79 c 0,0.08 0,0.11 -0.06,0.14 h -0.14 v -0.29 c 0.19,-0.08 0.14,0.14 0.19,0.19"
     id="path82"
     inkscape:connector-curvature="0"
     style="fill:#20419a"
     inkscape:export-filename="G:\Users\suitedoalex\sites\leicester-city-logo-7.png"
     inkscape:export-xdpi="75.997467"
     inkscape:export-ydpi="75.997467" />
  <path
     class="cls-2"
     d="m 24,39.79 c 0,0.11 0,0.22 -0.06,0.28 C 23.88,40.13 23.8,39.99 23.72,39.93 23.64,39.87 24,39.51 24,39.79"
     id="path84"
     inkscape:connector-curvature="0"
     style="fill:#20419a"
     inkscape:export-filename="G:\Users\suitedoalex\sites\leicester-city-logo-7.png"
     inkscape:export-xdpi="75.997467"
     inkscape:export-ydpi="75.997467" />
  <rect
     class="cls-2"
     x="38.550003"
     y="39.68"
     width="0.2"
     height="0.33000001"
     id="rect86"
     style="fill:#20419a"
     inkscape:export-filename="G:\Users\suitedoalex\sites\leicester-city-logo-7.png"
     inkscape:export-xdpi="75.997467"
     inkscape:export-ydpi="75.997467" />
  <path
     class="cls-2"
     d="M 25.09,43.19 C 24.81,43 24.51,43.47 24.48,43.66 a 0.54,0.54 0 0 0 -0.59,-0.48 h -0.07 a 9.45,9.45 0 0 0 0.75,-2.46 14.13,14.13 0 0 0 0.53,2.46"
     id="path88"
     inkscape:connector-curvature="0"
     style="fill:#20419a"
     inkscape:export-filename="G:\Users\suitedoalex\sites\leicester-city-logo-7.png"
     inkscape:export-xdpi="75.997467"
     inkscape:export-ydpi="75.997467" />
  <path
     class="cls-2"
     d="m 39.94,43.25 c 0,-0.11 -0.16,0 -0.25,-0.06 l -0.33,0.53 a 0.83,0.83 0 0 0 -0.28,-0.53 l -0.33,0.06 0.66,-2.51 a 24.52,24.52 0 0 0 0.53,2.51"
     id="path90"
     inkscape:connector-curvature="0"
     style="fill:#20419a"
     inkscape:export-filename="G:\Users\suitedoalex\sites\leicester-city-logo-7.png"
     inkscape:export-xdpi="75.997467"
     inkscape:export-ydpi="75.997467" />
  <path
     class="cls-2"
     d="m 36.84,47.04 c 1.83,0.11 3.459997,-1.18 5.229997,-0.35 A 18.78,18.78 0 0 1 23.69,48.27 l -2.13,-1.26 a 2.42,2.42 0 0 1 1.87,-0.77 c 2.27,0.36 5.59,1.52 7.16,-1 A 2.94,2.94 0 0 0 33,45.1 a 4.34,4.34 0 0 0 3.79,1.94"
     id="path92"
     inkscape:connector-curvature="0"
     style="fill:#20419a"
     inkscape:export-filename="G:\Users\suitedoalex\sites\leicester-city-logo-7.png"
     inkscape:export-xdpi="75.997467"
     inkscape:export-ydpi="75.997467" />
  <path
     class="cls-1"
     d="m 47.459997,36.36 a 4.76,4.76 0 0 1 -3.32,-0.94 c -0.06,-0.36 0.3,-0.5 0.58,-0.53 a 4.54,4.54 0 0 1 2.74,1.47"
     id="path94"
     inkscape:connector-curvature="0"
     style="fill:#ffffff"
     inkscape:export-filename="G:\Users\suitedoalex\sites\leicester-city-logo-7.png"
     inkscape:export-xdpi="75.997467"
     inkscape:export-ydpi="75.997467" />
  <path
     class="cls-1"
     d="m 18.83,35.56 c 0.06,0.69 -0.75,0.77 -1.19,1 a 5.7,5.7 0 0 1 -1.8,0.19 3.64,3.64 0 0 1 2.85,-1.38 z"
     id="path96"
     inkscape:connector-curvature="0"
     style="fill:#ffffff"
     inkscape:export-filename="G:\Users\suitedoalex\sites\leicester-city-logo-7.png"
     inkscape:export-xdpi="75.997467"
     inkscape:export-ydpi="75.997467" />
  <path
     class="cls-1"
     d="M 32.44,45.99 A 7,7 0 0 1 32,48.42 c -0.22,-0.83 -1,-2.13 -0.11,-2.9 a 0.61,0.61 0 0 1 0.58,0.47"
     id="path98"
     inkscape:connector-curvature="0"
     style="fill:#ffffff"
     inkscape:export-filename="G:\Users\suitedoalex\sites\leicester-city-logo-7.png"
     inkscape:export-xdpi="75.997467"
     inkscape:export-ydpi="75.997467" />
  <path
     class="cls-2"
     d="m 9.43,38 a 1.57,1.57 0 0 0 0.29,0.62 L 8.94,38.37 A 0.58,0.58 0 0 1 8.54,37.94 L 8.1,36.08 7,36.34 a 0.85,0.85 0 0 0 -0.73,0.62 l -0.47,-2 c 0.19,0.26 0.48,0.31 0.92,0.21 l 3.17,-0.74 c 0.44,-0.1 0.67,-0.28 0.73,-0.6 l 1.08,4.61 a 0.33,0.33 0 0 0 -0.21,0 10.4,10.4 0 0 0 -1,0.54 3.29,3.29 0 0 0 0,-1.86 l -0.35,-1.48 -1.21,0.28 z"
     id="path100"
     inkscape:connector-curvature="0"
     style="fill:#20419a"
     inkscape:export-filename="G:\Users\suitedoalex\sites\leicester-city-logo-7.png"
     inkscape:export-xdpi="75.997467"
     inkscape:export-ydpi="75.997467" />
  <path
     class="cls-2"
     d="M 8.35,43.25 C 7.51,41.6 7.92,40.25 9.3,39.51 A 2.61,2.61 0 0 1 13,40.9 c 0.84,1.65 0.46,3 -1,3.77 A 2.62,2.62 0 0 1 8.35,43.25 Z m 3.12,0.24 a 1.44,1.44 0 0 0 0.73,-2.12 1.57,1.57 0 0 0 -2.34,-0.73 1.44,1.44 0 0 0 -0.72,2.11 1.57,1.57 0 0 0 2.33,0.73 z"
     id="path102"
     inkscape:connector-curvature="0"
     style="fill:#20419a"
     inkscape:export-filename="G:\Users\suitedoalex\sites\leicester-city-logo-7.png"
     inkscape:export-xdpi="75.997467"
     inkscape:export-ydpi="75.997467" />
  <path
     class="cls-2"
     d="m 12.28,48.95 c -1.25,-1.38 -1.22,-2.82 -0.07,-3.86 a 2.61,2.61 0 0 1 3.92,0.37 c 1.25,1.38 1.24,2.81 0,3.9 a 2.62,2.62 0 0 1 -3.7,-0.22 z m 3.07,-0.59 a 1.44,1.44 0 0 0 0.15,-2.24 1.57,1.57 0 0 0 -2.5,-0.06 1.44,1.44 0 0 0 -0.14,2.23 1.57,1.57 0 0 0 2.44,0.07 z"
     id="path104"
     inkscape:connector-curvature="0"
     style="fill:#20419a"
     inkscape:export-filename="G:\Users\suitedoalex\sites\leicester-city-logo-7.png"
     inkscape:export-xdpi="75.997467"
     inkscape:export-ydpi="75.997467" />
  <path
     class="cls-2"
     d="M 17,52.22 17.15,51.99 19,49.3 18.8,49.17 a 3.27,3.27 0 0 0 -1.74,-0.65 c 0.48,-0.43 0.79,-0.63 0.85,-0.72 a 0.4,0.4 0 0 0 0,-0.21 L 22,50.3 a 0.33,0.33 0 0 0 -0.18,0.12 c -0.06,0.08 -0.13,0.44 -0.34,1.06 A 3.28,3.28 0 0 0 20.21,50.12 L 20,49.98 18.21,52.64 a 0.89,0.89 0 0 0 -0.11,1 L 16.38,52.49 A 0.67,0.67 0 0 0 17,52.22 Z"
     id="path106"
     inkscape:connector-curvature="0"
     style="fill:#20419a"
     inkscape:export-filename="G:\Users\suitedoalex\sites\leicester-city-logo-7.png"
     inkscape:export-xdpi="75.997467"
     inkscape:export-ydpi="75.997467" />
  <path
     class="cls-2"
     d="m 21.24,54.43 1,-3.05 a 0.9,0.9 0 0 0 -0.12,-1 l 2.62,0.89 c 1.47,0.5 2.18,1 1.87,1.93 a 1.07,1.07 0 0 1 -1.16,0.72 c 0.78,0.38 1,0.87 0.83,1.53 -0.34,1 -1.27,1.15 -2.88,0.61 l -2.87,-1 c 0.36,0.03 0.56,-0.2 0.71,-0.63 z m 2.65,0.93 c 0.65,0.22 1.06,0.12 1.2,-0.3 0.14,-0.42 -0.14,-0.71 -0.81,-0.93 l -1.49,-0.49 -0.41,1.22 z m 0.34,-2.12 c 0.64,0.22 1,0.14 1.14,-0.27 0.14,-0.41 -0.1,-0.62 -0.66,-0.81 l -1.26,-0.43 -0.38,1.11 z"
     id="path108"
     inkscape:connector-curvature="0"
     style="fill:#20419a"
     inkscape:export-filename="G:\Users\suitedoalex\sites\leicester-city-logo-7.png"
     inkscape:export-xdpi="75.997467"
     inkscape:export-ydpi="75.997467" />
  <path
     class="cls-2"
     d="m 32.52,57.49 h -1.85 a 0.54,0.54 0 0 0 0.18,-0.4 0.82,0.82 0 0 0 0,-0.3 L 30.74,56.45 27.9,56.2 27.77,56.43 a 0.87,0.87 0 0 0 -0.09,0.32 0.73,0.73 0 0 0 0.18,0.54 L 26,56.86 a 2.25,2.25 0 0 0 0.64,-0.64 l 2,-3.58 a 0.6,0.6 0 0 0 0.1,-0.23 0.5,0.5 0 0 0 0,-0.18 l 2,0.18 a 0.71,0.71 0 0 0 -0.08,0.18 0.67,0.67 0 0 0 0,0.23 L 32,56.64 a 2.58,2.58 0 0 0 0.52,0.85 z m -2.1,-2 -0.86,-2.4 -1.2,2.22 z"
     id="path110"
     inkscape:connector-curvature="0"
     style="fill:#20419a"
     inkscape:export-filename="G:\Users\suitedoalex\sites\leicester-city-logo-7.png"
     inkscape:export-xdpi="75.997467"
     inkscape:export-ydpi="75.997467" />
  <path
     class="cls-2"
     d="m 32.22,52.58 2,-0.29 a 0.83,0.83 0 0 0 -0.32,0.9 l 0.45,3.22 1.39,-0.2 a 2.89,2.89 0 0 0 1.84,-0.86 11,11 0 0 0 -0.3,1.28 0.42,0.42 0 0 0 0.13,0.2 l -4.56,0.64 a 0.82,0.82 0 0 0 0.29,-0.9 l -0.45,-3.22 c 0,-0.43 -0.16,-0.71 -0.47,-0.77 z"
     id="path112"
     inkscape:connector-curvature="0"
     style="fill:#20419a"
     inkscape:export-filename="G:\Users\suitedoalex\sites\leicester-city-logo-7.png"
     inkscape:export-xdpi="75.997467"
     inkscape:export-ydpi="75.997467" />
  <path
     class="cls-2"
     d="m 36.45,52.04 2,-0.7 a 0.83,0.83 0 0 0 -0.13,0.95 l 1.1,3.06 1.319997,-0.47 a 2.89,2.89 0 0 0 1.58,-1.24 10.93,10.93 0 0 0 0,1.31 0.41,0.41 0 0 0 0.17,0.17 L 38.16,56.64 a 0.82,0.82 0 0 0 0.11,-0.94 l -1.1,-3.06 C 37,52.27 36.77,52.06 36.45,52.04 Z"
     id="path114"
     inkscape:connector-curvature="0"
     style="fill:#20419a"
     inkscape:export-filename="G:\Users\suitedoalex\sites\leicester-city-logo-7.png"
     inkscape:export-xdpi="75.997467"
     inkscape:export-ydpi="75.997467" />
  <path
     class="cls-2"
     d="m 48.279997,51.38 c -0.3,0.21 -0.69,0.7 -1.32,1.15 -1.44,1 -2.8,0.86 -3.73,-0.44 -0.93,-1.3 -0.61,-2.84 0.9,-3.92 a 17,17 0 0 1 1.55,-0.86 1.29,1.29 0 0 0 0.19,-0.2 l 0.36,1.26 a 2.67,2.67 0 0 0 -1.54,0.51 1.64,1.64 0 0 0 -0.56,2.25 l 0.11,0.16 a 1.5,1.5 0 0 0 2.35,0.38 4.25,4.25 0 0 0 1.24,-1.53 l 0.78,1.09 a 1.1,1.1 0 0 0 -0.33,0.15 z"
     id="path116"
     inkscape:connector-curvature="0"
     style="fill:#20419a"
     inkscape:export-filename="G:\Users\suitedoalex\sites\leicester-city-logo-7.png"
     inkscape:export-xdpi="75.997467"
     inkscape:export-ydpi="75.997467" />
  <path
     class="cls-2"
     d="m 45.859997,47.08 1.37,-1.56 a 0.83,0.83 0 0 0 0.35,0.89 l 2.42,2.14 0.93,-1.06 a 2.89,2.89 0 0 0 0.85,-1.85 10.9,10.9 0 0 0 0.61,1.16 0.41,0.41 0 0 0 0.23,0.07 l -3,3.46 a 0.77,0.77 0 0 0 -0.36,-0.87 l -2.45,-2.14 c -0.38,-0.29 -0.66,-0.38 -0.95,-0.24 z"
     id="path118"
     inkscape:connector-curvature="0"
     style="fill:#20419a"
     inkscape:export-filename="G:\Users\suitedoalex\sites\leicester-city-logo-7.png"
     inkscape:export-xdpi="75.997467"
     inkscape:export-ydpi="75.997467" />
  <path
     class="cls-2"
     d="m 54.449997,44.05 c -0.8,1.44 -1.75,1.83 -2.91,1.19 l -2,-1.08 a 0.81,0.81 0 0 0 -1,0 l 1,-1.8 c 0,0.34 0.15,0.56 0.56,0.78 l 1.9,1.06 a 1.23,1.23 0 0 0 1.19,-2.15 l -1.82,-1.11 a 0.84,0.84 0 0 0 -1,0 l 1,-1.81 a 0.9,0.9 0 0 0 0.55,0.8 l 2,1.08 c 1.15,0.63 1.33,1.63 0.53,3.04 z"
     id="path120"
     inkscape:connector-curvature="0"
     style="fill:#20419a"
     inkscape:export-filename="G:\Users\suitedoalex\sites\leicester-city-logo-7.png"
     inkscape:export-xdpi="75.997467"
     inkscape:export-ydpi="75.997467" />
  <path
     class="cls-2"
     d="m 55.529997,39.48 -3.14,-0.72 c -0.44,-0.1 -0.74,-0.06 -0.94,0.21 l 0.62,-2.69 c 0.35,-1.52 0.78,-2.27 1.73,-2 a 1.07,1.07 0 0 1 0.83,1.08 c 0.3,-0.82 0.76,-1.13 1.44,-1 1,0.24 1.27,1.15 0.89,2.8 l -0.68,3 c -0.06,-0.41 -0.28,-0.58 -0.75,-0.68 z m -1.53,-2.84 c 0.15,-0.66 0,-1 -0.38,-1.1 -0.38,-0.1 -0.61,0.17 -0.74,0.74 l -0.3,1.3 1.14,0.26 z m 2.14,0.12 c 0.15,-0.67 0,-1.06 -0.42,-1.16 -0.42,-0.1 -0.69,0.21 -0.85,0.9 l -0.35,1.53 1.26,0.29 z"
     id="path122"
     inkscape:connector-curvature="0"
     style="fill:#20419a"
     inkscape:export-filename="G:\Users\suitedoalex\sites\leicester-city-logo-7.png"
     inkscape:export-xdpi="75.997467"
     inkscape:export-ydpi="75.997467" />
  <path
     class="cls-2"
     d="m 6,28.2 0.45,-2 a 0.82,0.82 0 0 0 0.73,0.61 l 3.18,0.7 0.3,-1.37 a 2.89,2.89 0 0 0 -0.16,-2 11,11 0 0 0 1.09,0.73 0.41,0.41 0 0 0 0.23,0 l -1,4.49 C 10.75,29.05 10.51,28.87 10.08,28.77 L 7,27.98 A 0.93,0.93 0 0 0 6,28.2 Z"
     id="path124"
     inkscape:connector-curvature="0"
     style="fill:#20419a"
     inkscape:export-filename="G:\Users\suitedoalex\sites\leicester-city-logo-7.png"
     inkscape:export-xdpi="75.997467"
     inkscape:export-ydpi="75.997467" />
  <path
     class="cls-2"
     d="m 11.35,23.64 -2.9,-1.48 a 0.81,0.81 0 0 0 -0.95,0 l 2.38,-4.62 a 0.33,0.33 0 0 0 0.14,0.17 c 0.09,0 0.45,0.08 1.1,0.22 A 3.29,3.29 0 0 0 9.91,19.34 L 9,21.1 l 1,0.54 1,-2 a 1.7,1.7 0 0 0 0.19,-0.65 l 0.43,0.69 a 0.57,0.57 0 0 1 0,0.59 l -0.87,1.7 1.11,0.57 0.95,-1.9 a 2.92,2.92 0 0 0 0.35,-2 10.07,10.07 0 0 0 0.84,1 0.39,0.39 0 0 0 0.23,0 l -2.4,4.69 c 0.11,-0.22 -0.08,-0.46 -0.48,-0.69 z"
     id="path126"
     inkscape:connector-curvature="0"
     style="fill:#20419a"
     inkscape:export-filename="G:\Users\suitedoalex\sites\leicester-city-logo-7.png"
     inkscape:export-xdpi="75.997467"
     inkscape:export-ydpi="75.997467" />
  <path
     class="cls-2"
     d="m 12.46,15.64 2.54,2 c 0.36,0.28 0.65,0.35 0.94,0.2 l -1.27,1.6 c 0.08,-0.32 -0.06,-0.58 -0.42,-0.86 l -2.54,-2 C 11.35,16.3 11.06,16.22 10.77,16.37 L 12,14.77 a 1,1 0 0 0 0.46,0.87 z"
     id="path128"
     inkscape:connector-curvature="0"
     style="fill:#20419a"
     inkscape:export-filename="G:\Users\suitedoalex\sites\leicester-city-logo-7.png"
     inkscape:export-xdpi="75.997467"
     inkscape:export-ydpi="75.997467" />
  <path
     class="cls-2"
     d="m 19.13,14.64 c -0.27,0.25 -0.6,0.77 -1.17,1.3 -1.3,1.19 -2.68,1.19 -3.75,0 -1.07,-1.19 -0.94,-2.75 0.43,-4 a 17,17 0 0 1 1.44,-1 1.3,1.3 0 0 0 0.17,-0.22 l 0.5,1.21 a 2.67,2.67 0 0 0 -1.46,0.69 1.64,1.64 0 0 0 -0.28,2.3 l 0.12,0.14 a 1.5,1.5 0 0 0 2.38,0.1 4.25,4.25 0 0 0 1,-1.67 l 0.9,1 a 1.11,1.11 0 0 0 -0.28,0.15 z"
     id="path130"
     inkscape:connector-curvature="0"
     style="fill:#20419a"
     inkscape:export-filename="G:\Users\suitedoalex\sites\leicester-city-logo-7.png"
     inkscape:export-xdpi="75.997467"
     inkscape:export-ydpi="75.997467" />
  <path
     class="cls-2"
     d="M 19.49,13.4 18,10.53 C 17.79,10.13 17.55,9.96 17.23,9.97 l 4.59,-2.43 a 0.33,0.33 0 0 0 0,0.22 c 0,0.09 0.32,0.33 0.77,0.8 a 3.29,3.29 0 0 0 -1.8,0.47 L 19,9.96 l 0.54,1 1.93,-1 A 1.7,1.7 0 0 0 22,9.53 v 0.81 a 0.57,0.57 0 0 1 -0.32,0.49 l -1.69,0.9 0.58,1.1 1.84,-1 a 2.92,2.92 0 0 0 1.43,-1.43 10.06,10.06 0 0 0 0.16,1.3 0.39,0.39 0 0 0 0.18,0.15 l -4.66,2.47 C 19.72,14.1 19.7,13.8 19.49,13.4 Z"
     id="path132"
     inkscape:connector-curvature="0"
     style="fill:#20419a"
     inkscape:export-filename="G:\Users\suitedoalex\sites\leicester-city-logo-7.png"
     inkscape:export-xdpi="75.997467"
     inkscape:export-ydpi="75.997467" />
  <path
     class="cls-2"
     d="m 26.38,10.51 q 1.21,-0.3 1.06,-0.93 c -0.12,-0.51 -0.7,-0.4 -1.68,-0.3 -1.22,0.13 -1.91,-0.16 -2.09,-0.91 -0.18,-0.75 0.44,-1.71 1.82,-2 0.88,-0.21 1.57,-0.22 2,-0.31 a 0.49,0.49 0 0 0 0.19,-0.09 v 1.29 a 3.53,3.53 0 0 0 -2,0 c -0.59,0.14 -0.86,0.39 -0.78,0.7 0.11,0.47 0.66,0.28 1.73,0.22 1.07,-0.06 1.87,0.19 2.07,1 0.25,1 -0.47,1.85 -2.07,2.24 -0.73,0.18 -1.3,0.2 -1.6,0.27 A 0.67,0.67 0 0 0 24.8,11.8 l -0.63,-1.29 a 4.78,4.78 0 0 0 2.21,0 z"
     id="path134"
     inkscape:connector-curvature="0"
     style="fill:#20419a"
     inkscape:export-filename="G:\Users\suitedoalex\sites\leicester-city-logo-7.png"
     inkscape:export-xdpi="75.997467"
     inkscape:export-ydpi="75.997467" />
  <path
     class="cls-2"
     d="M 30.19,10.09 V 9.82 L 30,6.58 h -0.24 a 3.28,3.28 0 0 0 -1.8,0.5 c 0.14,-0.63 0.27,-1 0.26,-1.09 a 0.4,0.4 0 0 0 -0.09,-0.2 l 4.89,-0.2 a 0.33,0.33 0 0 0 -0.07,0.2 c 0,0.1 0.15,0.44 0.35,1.06 A 3.28,3.28 0 0 0 31.47,6.5 h -0.26 l 0.13,3.24 a 0.89,0.89 0 0 0 0.49,0.85 l -2.06,0.05 a 0.67,0.67 0 0 0 0.42,-0.55 z"
     id="path136"
     inkscape:connector-curvature="0"
     style="fill:#20419a"
     inkscape:export-filename="G:\Users\suitedoalex\sites\leicester-city-logo-7.png"
     inkscape:export-xdpi="75.997467"
     inkscape:export-ydpi="75.997467" />
  <path
     class="cls-2"
     d="m 33.32,9.72 0.59,-3.2 A 0.81,0.81 0 0 0 33.65,5.61 l 5.11,0.94 a 0.33,0.33 0 0 0 -0.12,0.18 c 0,0.1 0,0.46 0.11,1.11 A 3.29,3.29 0 0 0 37,7.09 l -1.9,-0.35 -0.21,1.14 2.15,0.39 a 1.71,1.71 0 0 0 0.68,0 l -0.54,0.61 a 0.57,0.57 0 0 1 -0.56,0.19 l -1.88,-0.35 -0.23,1.23 2,0.38 a 2.93,2.93 0 0 0 2,-0.23 10,10 0 0 0 -0.68,1.12 0.39,0.39 0 0 0 0,0.23 l -5.18,-1 c 0.41,-0.04 0.59,-0.29 0.67,-0.73 z"
     id="path138"
     inkscape:connector-curvature="0"
     style="fill:#20419a"
     inkscape:export-filename="G:\Users\suitedoalex\sites\leicester-city-logo-7.png"
     inkscape:export-xdpi="75.997467"
     inkscape:export-ydpi="75.997467" />
  <path
     class="cls-2"
     d="m 40.08,12.37 -1.85,-0.9 c 0.33,0 0.55,-0.19 0.75,-0.6 l 1.409997,-2.91 a 0.81,0.81 0 0 0 0,-1 l 2.61,1.33 a 5.54,5.54 0 0 1 1.31,0.77 1.35,1.35 0 0 1 0.28,1.58 1.43,1.43 0 0 1 -1.82,0.66 1.93,1.93 0 0 1 0.42,1.12 4,4 0 0 0 0.34,1.58 l -1.91,-0.93 a 0.4,0.4 0 0 0 0.26,-0.2 1.79,1.79 0 0 0 0,-1.12 1.47,1.47 0 0 0 -0.88,-1 l -0.52,-0.25 L 40.04,11.41 a 0.87,0.87 0 0 0 0.04,0.96 z m 1.999997,-2.07 c 0.71,0.34 1.08,0.35 1.31,-0.13 0.23,-0.48 0,-0.76 -0.71,-1.1 l -1.19,-0.58 -0.6,1.24 z"
     id="path140"
     inkscape:connector-curvature="0"
     style="fill:#20419a"
     inkscape:export-filename="G:\Users\suitedoalex\sites\leicester-city-logo-7.png"
     inkscape:export-xdpi="75.997467"
     inkscape:export-ydpi="75.997467" />
  <path
     class="cls-2"
     d="m 47.759997,17.97 c -0.26,-0.26 -0.8,-0.56 -1.36,-1.1 -1.26,-1.24 -1.33,-2.61 -0.21,-3.75 1.12,-1.14 2.69,-1.09 4,0.22 a 17,17 0 0 1 1.12,1.38 1.29,1.29 0 0 0 0.23,0.16 l -1.18,0.57 a 2.67,2.67 0 0 0 -0.77,-1.42 1.63,1.63 0 0 0 -2.3,-0.15 l -0.15,0.15 a 1.5,1.5 0 0 0 0,2.38 4.25,4.25 0 0 0 1.72,1 l -0.94,1 a 1.1,1.1 0 0 0 -0.16,-0.44 z"
     id="path142"
     inkscape:connector-curvature="0"
     style="fill:#20419a"
     inkscape:export-filename="G:\Users\suitedoalex\sites\leicester-city-logo-7.png"
     inkscape:export-xdpi="75.997467"
     inkscape:export-ydpi="75.997467" />
  <path
     class="cls-2"
     d="m 52.479997,17.64 -2.64,1.9 c -0.38,0.26 -0.53,0.52 -0.47,0.84 l -1.18,-1.68 c 0.28,0.17 0.57,0.11 1,-0.16 l 2.64,-1.85 c 0.38,-0.26 0.53,-0.52 0.47,-0.84 l 1.18,1.68 a 0.86,0.86 0 0 0 -1,0.11 z"
     id="path144"
     inkscape:connector-curvature="0"
     style="fill:#20419a"
     inkscape:export-filename="G:\Users\suitedoalex\sites\leicester-city-logo-7.png"
     inkscape:export-xdpi="75.997467"
     inkscape:export-ydpi="75.997467" />
  <path
     class="cls-2"
     d="m 50.769997,21.64 0.25,-0.12 2.92,-1.39 -0.1,-0.22 a 3.28,3.28 0 0 0 -1.16,-1.46 c 0.64,-0.12 1,-0.14 1.1,-0.18 a 0.39,0.39 0 0 0 0.14,-0.16 l 2.08,4.47 a 0.33,0.33 0 0 0 -0.22,0 c -0.09,0 -0.34,0.31 -0.84,0.74 a 3.28,3.28 0 0 0 -0.4,-1.82 l -0.11,-0.23 -2.89,1.37 a 0.89,0.89 0 0 0 -0.59,0.78 l -0.89,-1.86 a 0.67,0.67 0 0 0 0.71,0.08 z"
     id="path146"
     inkscape:connector-curvature="0"
     style="fill:#20419a"
     inkscape:export-filename="G:\Users\suitedoalex\sites\leicester-city-logo-7.png"
     inkscape:export-xdpi="75.997467"
     inkscape:export-ydpi="75.997467" />
  <path
     class="cls-2"
     d="m 56.909997,27.56 a 0.35,0.35 0 0 0 0.27,-0.23 l 0.4,1.93 a 7.59,7.59 0 0 0 -1.15,-0.62 l -2.62,-1.23 -0.76,0.16 c -0.45,0.09 -0.7,0.3 -0.76,0.6 l -0.42,-2 c 0.21,0.29 0.49,0.32 0.93,0.23 l 0.73,-0.15 2.11,-2.24 a 2.16,2.16 0 0 0 0.63,-1 l 0.44,2.14 a 0.3,0.3 0 0 0 -0.32,-0.13 0.77,0.77 0 0 0 -0.42,0.28 l -1.33,1.34 1.83,0.78 a 0.7,0.7 0 0 0 0.44,0.14 z"
     id="path148"
     inkscape:connector-curvature="0"
     style="fill:#20419a"
     inkscape:export-filename="G:\Users\suitedoalex\sites\leicester-city-logo-7.png"
     inkscape:export-xdpi="75.997467"
     inkscape:export-ydpi="75.997467" />
  <path
     class="cls-3"
     d="m 42.649997,23.46 0.06,-0.06 v -0.12 a 5.8,5.8 0 0 1 0.49,-2.25 2.23,2.23 0 0 0 0.12,-2 v -0.17 a 3.57,3.57 0 0 0 -0.3,-0.76 l -0.12,-0.22 -0.24,0.08 a 12.22,12.22 0 0 0 -5.679997,4 l -0.7,0.54 a 0.79,0.79 0 0 0 0,-0.12 0.85,0.85 0 0 0 -0.56,-0.58 12.9,12.9 0 0 0 -4.15,-0.65 10.78,10.78 0 0 0 -4.44,0.88 l -0.3,0.13 0.09,0.16 c -1.8,-1.54 -5.19,-4.33 -6.16,-4.33 h -0.17 l -0.08,0.11 a 2,2 0 0 0 -0.29,0.6 l -0.07,0.09 c -0.32,0.33 -0.41,0.7 0,1.81 a 8.43,8.43 0 0 1 0.61,2.56 8.2,8.2 0 0 0 0.59,2 c 0.08,0.32 0.62,2.52 0.88,3.13 a 0.74,0.74 0 0 1 -0.28,1 h -0.07 a 2,2 0 0 0 -1.15,1.35 1.78,1.78 0 0 0 0.58,1.41 2.43,2.43 0 0 1 0.22,0.53 v 0 c -0.16,0.26 0,0.42 0.17,0.58 l 0.1,0.1 a 3.1,3.1 0 0 0 0.5,0.39 1.76,1.76 0 0 1 0.46,0.39 2.34,2.34 0 0 1 0.15,0.24 1.25,1.25 0 0 0 0.5,0.54 v 0.34 a 2,2 0 0 0 1.19,2.06 l 0.75,0.34 c 0.47,0.2 0.47,0.2 0.62,0.47 a 5.11,5.11 0 0 0 1.47,1.54 3.45,3.45 0 0 1 1,1.13 l 0.48,0.14 v 0 l 0.07,-0.1 v 0 a 3.52,3.52 0 0 0 -0.29,1.1 c 0,0.44 0.18,1.46 1.8,1.73 v 0 l 0.43,0.3 0.54,0.46 H 32 l 0.39,-0.09 h 0.1 l 0.07,-0.08 0.24,-0.3 0.2,-0.22 a 2.14,2.14 0 0 0 1.19,-0.48 v 0 a 2.89,2.89 0 0 0 0.69,-1.32 c 0,-0.1 -0.06,-0.52 -0.09,-0.76 v -0.06 l -0.17,-0.47 a 1.71,1.71 0 0 1 0.14,0.27 l 0.17,0.53 0.35,-0.42 0.8,-1 c 0.07,-0.07 0.49,-0.49 0.76,-0.73 a 2.23,2.23 0 0 0 0.49,-0.74 l 0.09,-0.18 a 8.66,8.66 0 0 1 1.81,-1.31 2,2 0 0 0 1.089997,-2.06 v -0.13 l -0.1,-0.06 a 4.25,4.25 0 0 0 0.22,-0.64 7.15,7.15 0 0 0 1.56,-1.29 l 0.12,-0.15 -0.12,-0.17 a 1.3,1.3 0 0 1 0.38,-1.22 c 0.58,-0.7 0.62,-0.86 0.52,-1.08 a 0.33,0.33 0 0 0 -0.22,-0.18 3.94,3.94 0 0 1 -1.19,-1.14 v -0.21 a 2.07,2.07 0 0 1 0.15,-1.58 2.2,2.2 0 0 0 0.36,-1.19 0.6,0.6 0 0 1 0,-0.14 22,22 0 0 1 0.65,-2.27 z"
     id="path150"
     inkscape:connector-curvature="0"
     style="fill:#f7a800"
     inkscape:export-filename="G:\Users\suitedoalex\sites\leicester-city-logo-7.png"
     inkscape:export-xdpi="75.997467"
     inkscape:export-ydpi="75.997467" />
  <path
     class="cls-1"
     d="m 33.36,38.38 0.27,0.83 0.12,1.12 -0.73,0.55 -2.64,-0.08 -1,-0.9 0.44,-0.38 0.25,-1.14 c -3.3,-2.47 -4.76,-2.74 -4.76,-2.74 a 6.62,6.62 0 0 0 -2,-0.53 v 0.06 a 2,2 0 0 0 1.19,2.06 l 0.75,0.34 c 0.47,0.2 0.47,0.2 0.62,0.47 a 5.11,5.11 0 0 0 1.47,1.54 3.45,3.45 0 0 1 1,1.13 l 0.48,0.14 v 0 l 0.07,-0.1 v 0 a 3.52,3.52 0 0 0 -0.29,1.1 c 0,0.44 0.18,1.46 1.8,1.73 v 0 l 0.43,0.3 0.54,0.46 H 32 l 0.39,-0.09 h 0.1 l 0.07,-0.08 0.24,-0.3 0.2,-0.23 a 2.14,2.14 0 0 0 1.19,-0.48 v 0 a 2.89,2.89 0 0 0 0.69,-1.32 c 0,-0.1 -0.06,-0.52 -0.09,-0.76 v -0.06 l -0.17,-0.47 a 1.59,1.59 0 0 1 0.14,0.27 l 0.18,0.53 0.35,-0.42 0.8,-1 c 0.07,-0.07 0.49,-0.49 0.76,-0.73 a 2.22,2.22 0 0 0 0.49,-0.74 l 0.09,-0.18 a 8.65,8.65 0 0 1 1.81,-1.31 2,2 0 0 0 1.089997,-2.06 l -0.1,-0.39 V 34.44 L 39.32,34.94 c -5.99,2.32 -5.96,3.44 -5.96,3.44 z"
     id="path152"
     inkscape:connector-curvature="0"
     style="fill:#ffffff"
     inkscape:export-filename="G:\Users\suitedoalex\sites\leicester-city-logo-7.png"
     inkscape:export-xdpi="75.997467"
     inkscape:export-ydpi="75.997467" />
  <path
     class="cls-2"
     d="m 25.55,31.77 c 0,0 0.18,-0.24 0.63,0.12 a 3.75,3.75 0 0 0 2.49,1 c 0,0 0.21,0.33 -0.51,0.3 A 5.38,5.38 0 0 1 27.23,33.1 5.55,5.55 0 0 1 25.88,31.96 0.76,0.76 0 0 0 25.55,31.77 Z"
     id="path154"
     inkscape:connector-curvature="0"
     style="fill:#20419a"
     inkscape:export-filename="G:\Users\suitedoalex\sites\leicester-city-logo-7.png"
     inkscape:export-xdpi="75.997467"
     inkscape:export-ydpi="75.997467" />
  <path
     class="cls-2"
     d="m 32.25,24.82 -0.33,-0.27 a 1.69,1.69 0 0 1 -0.09,-0.78 6.91,6.91 0 0 1 1.59,-1.13 3,3 0 0 1 -0.69,0.87 1.66,1.66 0 0 0 -0.51,0.54 1.74,1.74 0 0 0 0.03,0.77 z"
     id="path156"
     inkscape:connector-curvature="0"
     style="fill:#20419a"
     inkscape:export-filename="G:\Users\suitedoalex\sites\leicester-city-logo-7.png"
     inkscape:export-xdpi="75.997467"
     inkscape:export-ydpi="75.997467" />
  <path
     class="cls-2"
     d="m 31.2,24.73 c 0,0 0.39,-0.66 0.18,-0.84 -0.21,-0.18 -1.5,-1.17 -1.5,-1.17 0,0 0,0.63 0.33,0.84 0.33,0.21 0.57,0.21 0.6,0.36 v 0.15 a 0.31,0.31 0 0 0 0.06,0.3 z"
     id="path158"
     inkscape:connector-curvature="0"
     style="fill:#20419a"
     inkscape:export-filename="G:\Users\suitedoalex\sites\leicester-city-logo-7.png"
     inkscape:export-xdpi="75.997467"
     inkscape:export-ydpi="75.997467" />
  <path
     class="cls-2"
     d="m 34.5,28.47 a 15.85,15.85 0 0 1 2.08,-0.94 c 0.53,-0.12 0,-0.25 -0.12,-0.29 a 2.54,2.54 0 0 0 -0.49,0 l -0.49,0.2 -0.24,0.12 -0.37,0.29 -0.29,0.12 -0.16,0.08 c 0,0 -0.17,0.59 0.08,0.42 z"
     id="path160"
     inkscape:connector-curvature="0"
     style="fill:#20419a"
     inkscape:export-filename="G:\Users\suitedoalex\sites\leicester-city-logo-7.png"
     inkscape:export-xdpi="75.997467"
     inkscape:export-ydpi="75.997467" />
  <path
     class="cls-2"
     d="m 26.7,27.37 c 0,-0.2 0.2,0.08 0.37,0.16 0.17,0.08 0.94,0.33 0.94,0.33 l 0.25,0.16 0.41,0.33 -0.08,0.2 a 0.6,0.6 0 0 1 -0.37,-0.12 c -0.12,-0.12 -0.52,-0.39 -0.55,-0.32 -0.03,0.07 -0.27,0 -0.48,-0.13 A 0.86,0.86 0 0 1 26.7,27.37 Z"
     id="path162"
     inkscape:connector-curvature="0"
     style="fill:#20419a"
     inkscape:export-filename="G:\Users\suitedoalex\sites\leicester-city-logo-7.png"
     inkscape:export-xdpi="75.997467"
     inkscape:export-ydpi="75.997467" />
  <path
     class="cls-1"
     d="M 25.1,24.18 A 2.73,2.73 0 0 1 24.94,23.8 v -0.16 a 3.75,3.75 0 0 1 -0.15,-0.83 2,2 0 0 0 -0.61,-1.2 L 24.09,21.52 A 0.41,0.41 0 0 0 23.78,21.3 c -0.08,0 -0.23,0 -0.61,-0.41 A 12,12 0 0 0 21.66,19.7 L 21,19.29 l 0.26,0.79 a 7.55,7.55 0 0 1 0.24,0.83 3.18,3.18 0 0 0 0,0.56 5.23,5.23 0 0 1 0.07,0.71 c 0,0.11 0.17,1.34 0.2,1.55 v 0 a 8.82,8.82 0 0 0 0.46,0.84 v 0 a 0.78,0.78 0 0 1 0.16,0.3 v 0 a 1.63,1.63 0 0 0 0.06,1.12 c 0.16,0.51 0.44,0.61 0.65,0.61 a 1,1 0 0 0 0.72,-0.44 c 0.06,-0.07 0.21,-0.25 0.29,-0.33 l 0.1,-0.1 a 7.88,7.88 0 0 1 0.74,-0.71 0.73,0.73 0 0 0 0.3,-0.55 0.66,0.66 0 0 0 -0.15,-0.29 z"
     id="path164"
     inkscape:connector-curvature="0"
     style="fill:#ffffff"
     inkscape:export-filename="G:\Users\suitedoalex\sites\leicester-city-logo-7.png"
     inkscape:export-xdpi="75.997467"
     inkscape:export-ydpi="75.997467" />
  <path
     class="cls-2"
     d="m 37.39,31.35 c 0,0 -0.17,0 -0.17,0.27 0,0.27 -1,1 -1.28,1.19 a 2.35,2.35 0 0 1 -1,0.09 c -0.34,0 -0.45,0.45 -0.45,0.45 v 0 a 4.34,4.34 0 0 0 -0.24,0.54 11.63,11.63 0 0 1 -0.39,1.7 3.88,3.88 0 0 0 0.14,2.11 4.58,4.58 0 0 0 0.46,0.85 2.57,2.57 0 0 1 0.13,0.83 l 0.22,-0.79 a 1.31,1.31 0 0 0 -0.08,-0.45 3.46,3.46 0 0 1 -0.35,-0.65 9.37,9.37 0 0 1 -0.27,-1.26 c 0,-0.2 0.19,-1.34 0.23,-1.54 a 5,5 0 0 0 0.25,-1.18 1.54,1.54 0 0 0 0,-0.16 3.13,3.13 0 0 0 2.75,-1.2 3.54,3.54 0 0 0 0.31,-0.8 z"
     id="path166"
     inkscape:connector-curvature="0"
     style="fill:#20419a"
     inkscape:export-filename="G:\Users\suitedoalex\sites\leicester-city-logo-7.png"
     inkscape:export-xdpi="75.997467"
     inkscape:export-ydpi="75.997467" />
  <path
     class="cls-1"
     d="m 41.569997,19.64 a 5.28,5.28 0 0 1 -1.2,0.86 C 39.53,20.99 38.58,21.5 38.5,22.74 v 0.1 l 0.06,0.08 c 0.19,0.28 0.09,0.49 -0.14,0.86 a 2.22,2.22 0 0 0 -0.28,0.61 v 0.18 l 0.15,0.12 a 4.52,4.52 0 0 1 0.61,0.61 2.37,2.37 0 0 0 1.469997,1 h 0.17 l 0.1,-0.14 a 3.47,3.47 0 0 0 0.5,-1.52 3,3 0 0 1 0.43,-1.3 l 0.07,-0.1 v -0.12 a 5.26,5.26 0 0 1 0.22,-1.86 8.5,8.5 0 0 0 0.24,-1.38 v -0.81 z"
     id="path168"
     inkscape:connector-curvature="0"
     style="fill:#ffffff"
     inkscape:export-filename="G:\Users\suitedoalex\sites\leicester-city-logo-7.png"
     inkscape:export-xdpi="75.997467"
     inkscape:export-ydpi="75.997467" />
  <path
     class="cls-2"
     d="m 28.86,33.77 c 0.11,1.28 1.26,2.25 0.5,3.52 0.09,0.72 -0.59,1.08 -0.78,1.67 -0.31,0 -0.17,-0.49 -0.12,-0.7 a 4.16,4.16 0 0 0 0.17,-4 c 0,-0.21 0,-0.44 0.24,-0.49"
     id="path170"
     inkscape:connector-curvature="0"
     style="fill:#20419a"
     inkscape:export-filename="G:\Users\suitedoalex\sites\leicester-city-logo-7.png"
     inkscape:export-xdpi="75.997467"
     inkscape:export-ydpi="75.997467" />
  <path
     class="cls-2"
     d="m 42.069997,18.84 c -1.09,0.94 -2.469997,1.28 -3.479997,2.43 -1,0.89 0.16,2.38 -1.23,3.08 a 15.58,15.58 0 0 0 3.069997,2.56 c 0.85,-0.52 0.88,-1.49 0.93,-2.38 0.88,-1.54 0.44,-3.37 1.12,-5 -0.14,-0.24 0.03,-0.79 -0.41,-0.69 z m -0.71,4.21 c -0.63,0.86 -0.36,2.06 -1,2.93 C 39.48,25.88 39.1,24.98 38.36,24.41 c 0.14,-0.57 0.85,-1.07 0.38,-1.75 0.11,-1.65 2.059997,-1.93 2.999997,-3 0.03,1.04 -0.55,2.37 -0.38,3.39 z"
     id="path172"
     inkscape:connector-curvature="0"
     style="fill:#20419a"
     inkscape:export-filename="G:\Users\suitedoalex\sites\leicester-city-logo-7.png"
     inkscape:export-xdpi="75.997467"
     inkscape:export-ydpi="75.997467" />
  <path
     class="cls-2"
     d="m 25.27,23.95 c -0.08,-0.2 -0.29,0 -0.21,-0.61 0.18,-1.31 0,-0.71 -0.65,-1.84 a 3.58,3.58 0 0 1 -0.47,-0.68 c 0,-0.14 -0.14,-0.06 -0.34,-0.18 -0.2,-0.12 -0.33,-0.16 -0.61,-0.33 a 3.2,3.2 0 0 1 -0.74,-0.65 4.7,4.7 0 0 0 -1.14,-0.69 0.26,0.26 0 0 0 -0.33,0 c -0.2,0 0.08,0.86 0.08,1 a 17.44,17.44 0 0 0 0.29,2.08 14.64,14.64 0 0 0 0.61,2.45 5.35,5.35 0 0 1 0.33,1.59 1.55,1.55 0 0 0 0.76,1.23 13.4,13.4 0 0 1 1.57,-1.31 2.32,2.32 0 0 0 0.82,-0.86 6.28,6.28 0 0 0 0.45,-0.65 c 0.19,-0.3 -0.34,-0.34 -0.42,-0.55 z m -0.45,1.06 a 10,10 0 0 0 -0.9,0.86 c -0.12,0.12 -0.33,0.37 -0.33,0.37 0,0 -0.61,0.82 -0.9,-0.08 a 1.4,1.4 0 0 1 0,-1.18 1.17,1.17 0 0 0 -0.25,-0.45 c -0.12,-0.16 -0.45,-0.82 -0.45,-0.82 0,0 -0.2,-1.31 -0.2,-1.55 0,-0.24 -0.12,-1.14 -0.12,-1.31 a 7.25,7.25 0 0 0 -0.27,-1 12.26,12.26 0 0 1 1.53,1.19 c 0.69,0.65 0.82,0.41 0.9,0.57 a 2.24,2.24 0 0 1 0.69,1.23 4.21,4.21 0 0 0 0.2,1 3.56,3.56 0 0 0 0.2,0.49 c 0,0 0.31,0.26 -0.1,0.64 z"
     id="path174"
     inkscape:connector-curvature="0"
     style="fill:#20419a"
     inkscape:export-filename="G:\Users\suitedoalex\sites\leicester-city-logo-7.png"
     inkscape:export-xdpi="75.997467"
     inkscape:export-ydpi="75.997467" />
  <circle
     class="cls-2"
     cx="27.910004"
     cy="32.02"
     r="0.69"
     id="circle176"
     style="fill:#20419a"
     inkscape:export-filename="G:\Users\suitedoalex\sites\leicester-city-logo-7.png"
     inkscape:export-xdpi="75.997467"
     inkscape:export-ydpi="75.997467" />
  <circle
     class="cls-1"
     cx="27.620003"
     cy="31.76"
     r="0.14"
     id="circle178"
     style="fill:#ffffff"
     inkscape:export-filename="G:\Users\suitedoalex\sites\leicester-city-logo-7.png"
     inkscape:export-xdpi="75.997467"
     inkscape:export-ydpi="75.997467" />
  <circle
     class="cls-2"
     cx="35.540001"
     cy="32.02"
     r="0.69"
     id="circle180"
     style="fill:#20419a"
     inkscape:export-filename="G:\Users\suitedoalex\sites\leicester-city-logo-7.png"
     inkscape:export-xdpi="75.997467"
     inkscape:export-ydpi="75.997467" />
  <path
     class="cls-2"
     d="m 26.39,30.83 a 15.17,15.17 0 0 1 -2,0.06 5.62,5.62 0 0 0 2,0.35 3.37,3.37 0 0 1 1.25,-0.09 c 1.11,0.14 1.62,1.3 2.49,1.73 l 0.14,-0.43 a 3.18,3.18 0 0 0 -3.88,-1.62 z"
     id="path182"
     inkscape:connector-curvature="0"
     style="fill:#20419a"
     inkscape:export-filename="G:\Users\suitedoalex\sites\leicester-city-logo-7.png"
     inkscape:export-xdpi="75.997467"
     inkscape:export-ydpi="75.997467" />
  <path
     class="cls-2"
     d="m 42.559997,29.23 c -1.29,-1 -0.51,-1.74 -0.24,-2.28 a 5.57,5.57 0 0 0 0.39,-1.83 c 0,-0.27 0.06,-1.32 0.39,-1.62 0.33,-0.3 0.39,-1.92 0.54,-2.31 a 4.37,4.37 0 0 0 0.21,-1.17 3.44,3.44 0 0 1 0.06,-0.72 14.32,14.32 0 0 0 -1,-2.22 c -1.44,0.15 -5.099997,3.3 -5.459997,3.69 a 4,4 0 0 1 -0.75,0.63 19,19 0 0 0 -5.16,-0.57 18.31,18.31 0 0 0 -4.88,0.72 c -2,-2.6 -6.16,-4.2 -6.16,-4.2 -1.5,1.53 -0.5,5.19 -0.3,5.52 a 3.44,3.44 0 0 1 0.48,1.59 19.59,19.59 0 0 0 0.54,2.76 5.19,5.19 0 0 0 0.6,1.41 c 0,0 -0.33,0.36 -0.9,0.93 -0.57,0.57 -0.36,0.3 -0.69,0.45 a 0.8,0.8 0 0 0 -0.39,0.57 8,8 0 0 0 0.84,1.23 c 0.39,0.42 -0.12,0.78 -0.12,0.78 0,0 0.69,0.57 1.11,0.9 0.42,0.33 0.18,0.3 0.48,0.57 0.3,0.27 0.09,0.48 0.09,0.48 l 0.24,0.21 c 0.18,2.13 2,2.91 2.73,3.3 a 4.36,4.36 0 0 1 1.17,1 l 0.57,0.45 c 1.44,1 1.44,2 1.44,2 -0.27,1.62 0.87,1.92 0.87,1.92 1.53,0.51 1.44,0.63 1.44,0.63 1.17,0.93 1.5,0.45 1.92,0.33 a 3.87,3.87 0 0 0 0.93,-0.48 2.57,2.57 0 0 0 1.83,-2.76 7.54,7.54 0 0 1 0.63,-0.78 3.32,3.32 0 0 0 0.51,-0.81 18.52,18.52 0 0 1 2.48,-1.91 4,4 0 0 0 2.159997,-3 2.78,2.78 0 0 1 1.84,-2.14 1.1,1.1 0 0 1 0,-1.17 c 0.33,-0.48 0.87,-1.22 0.87,-1.23 0,-0.01 -0.07,0.05 -1.31,-0.87 z M 32.31,44.04 31.92,44.13 h -0.27 l -0.6,-0.36 a 2.52,2.52 0 0 1 0.63,-0.06 h 0.84 z m 9.889997,-13 a 1.52,1.52 0 0 0 -0.42,1.53 A 8.17,8.17 0 0 1 39,34.51 c -0.12,0 -0.33,0.27 -0.45,0.39 -0.12,0.12 -0.75,0.84 -0.75,0.84 h 0.3 l -0.11,0.38 c 0,0 0.44,-0.5 0.59,-0.71 0.15,-0.21 0.54,-0.09 0.54,-0.09 l 0.42,-0.21 0.27,-0.18 a 0.31,0.31 0 0 1 0.24,0 1.71,1.71 0 0 1 -0.93,1.71 8.41,8.41 0 0 0 -1.92,1.41 3.28,3.28 0 0 1 -0.54,0.87 c -0.3,0.27 -0.78,0.75 -0.78,0.75 l -0.81,1 a 1.94,1.94 0 0 0 -0.24,-0.45 c -0.21,-0.33 -0.09,-0.3 -0.12,-0.48 a 1.76,1.76 0 0 0 -0.24,-0.6 c -0.15,-0.27 -0.33,-0.12 -0.45,-0.21 a 0.91,0.91 0 0 1 -0.21,-0.66 c 0,-0.3 -0.72,-3.72 -0.78,-4 l -0.06,-0.3 a 8.25,8.25 0 0 1 1.23,-1.83 2.85,2.85 0 0 1 0.6,-0.54 v 0 a 1.83,1.83 0 0 1 1.58,-0.27 v 0 a 4.39,4.39 0 0 0 1,0.16 2.21,2.21 0 0 0 1.73,-0.78 c -0.46,0.1 -1.37,0.2 -1.37,0.2 -4.38,-0.39 -3.3,0.19 -3.3,0.19 A 2.86,2.86 0 0 0 33,32.74 c 0,0 -0.3,0.39 -0.42,0.57 a 2.65,2.65 0 0 0 -0.09,1.08 5.84,5.84 0 0 0 0.09,0.66 8.29,8.29 0 0 0 0.63,3.84 c 0,0.09 0.32,1.41 0.32,1.41 h 0.16 l 0.24,-0.25 h 0.15 l 0.06,0.15 0.33,0.9 c 0,0 0.09,0.63 0.09,0.72 A 2.92,2.92 0 0 1 34,42.93 1.86,1.86 0 0 1 32.47,43.35 H 32.4 l -0.33,-0.07 h -0.16 l -0.12,-0.12 v -0.52 a 1.43,1.43 0 0 0 0.52,-0.2 1.55,1.55 0 0 0 0.9,-1.51 c 0,-0.23 -0.36,-0.41 -0.36,-0.41 a 4.5,4.5 0 0 0 -2.37,0 c -0.51,0.12 -0.33,0.84 -0.33,0.84 0,0.43 0.84,1.11 0.84,1.11 a 1,1 0 0 0 0.6,0.21 v 0.16 a 1.81,1.81 0 0 1 -0.12,0.33 c 0,0.11 -0.3,0.16 -0.45,0.19 h -0.14 c -1.53,-0.15 -1.83,-0.93 -1.83,-1.47 a 6.17,6.17 0 0 1 0.6,-1.74 l 0.18,0.15 a 1.26,1.26 0 0 0 0.42,-0.06 c 0.09,-0.06 0.06,-0.21 0,-0.3 -0.06,-0.09 -0.15,-0.3 -0.15,-0.3 0.69,-0.72 1.11,-5.49 1.14,-5.61 a 0.85,0.85 0 0 0 0,-0.33 L 31.15,33.49 31,33.34 c 0,0 -0.39,-0.3 -0.57,-0.21 -0.18,0.09 0.18,0.57 0.18,0.57 l 0.21,0.27 a 8.83,8.83 0 0 0 -0.39,2 L 30,37.99 a 6.71,6.71 0 0 0 -0.39,1.17 c -0.12,0.57 -0.66,0.15 -0.66,0.15 a 1.65,1.65 0 0 1 -0.3,1.35 3.45,3.45 0 0 0 -1.11,-1.32 4.79,4.79 0 0 1 -1.38,-1.44 c -0.27,-0.48 -0.3,-0.36 -1.5,-0.93 a 1.7,1.7 0 0 1 -1,-1.74 c 0,0 0.84,0.33 1,0.36 a 7.28,7.28 0 0 1 0.9,0.3 c 0.21,0.09 1.11,0.66 0.21,-0.33 -0.9,-0.99 -1.35,-0.66 -1.92,-0.87 -0.57,-0.21 -0.54,-0.45 -0.81,-0.81 -0.27,-0.36 -0.66,-0.48 -1,-0.81 -0.34,-0.33 -0.24,-0.21 -0.18,-0.39 0.06,-0.18 -0.27,-0.78 -0.27,-0.78 -1.26,-1.35 0.06,-2.07 0.48,-2.34 a 1,1 0 0 0 0.4,-1.36 v 0 C 22.2,27.57 21.6,25.08 21.6,25.08 A 7.89,7.89 0 0 1 21,23.18 8.82,8.82 0 0 0 20.37,20.54 c -0.54,-1.53 0,-1.35 0.09,-1.71 a 1.78,1.78 0 0 1 0.24,-0.51 c 1.11,-0.06 7,5.1 7,5.1 a 4.56,4.56 0 0 0 -0.44,-1.09 12.33,12.33 0 0 1 8.35,-0.23 c 0.84,0.33 0.09,1.23 0.09,1.23 l 1.53,-1.14 c 1.83,-2.7 5.549997,-3.9 5.549997,-3.9 a 3.34,3.34 0 0 1 0.27,0.69 2.17,2.17 0 0 1 0,1.89 6.27,6.27 0 0 0 -0.54,2.4 17.32,17.32 0 0 0 -0.69,2.4 2.22,2.22 0 0 1 -0.33,1.29 2.54,2.54 0 0 0 -0.15,2 c 0.09,0.48 1.38,1.38 1.38,1.38 0,0 0.21,-0.1 -0.51,0.77 z"
     id="path184"
     inkscape:connector-curvature="0"
     style="fill:#20419a"
     inkscape:export-filename="G:\Users\suitedoalex\sites\leicester-city-logo-7.png"
     inkscape:export-xdpi="75.997467"
     inkscape:export-ydpi="75.997467" />
  <circle
     class="cls-1"
     cx="35.240005"
     cy="31.76"
     r="0.14"
     id="circle186"
     style="fill:#ffffff"
     inkscape:export-filename="G:\Users\suitedoalex\sites\leicester-city-logo-7.png"
     inkscape:export-xdpi="75.997467"
     inkscape:export-ydpi="75.997467" />
</svg>
